<svg width="813" height="384" viewBox="0 0 813 384" fill="none" xmlns="http://www.w3.org/2000/svg">
<rect width="813" height="384" fill="#E7E7E7"/>
<rect x="8" y="8" width="795" height="69" rx="6" fill="white"/>
<rect x="8.5" y="8.5" width="794" height="68" rx="5.5" stroke="black" stroke-opacity="0.3"/>
<rect x="9" y="145" width="100" height="48" rx="6" fill="#F2F2F2"/>
<rect x="9.5" y="145.5" width="99" height="47" rx="5.5" stroke="black" stroke-opacity="0.3"/>
<path d="M54.144 169.144C53.952 168.2 53.008 167.64 52.08 167.64C51.152 167.64 50.4 168.104 50.4 168.904C50.4 169.736 51.504 170.072 52.4 170.248C54.32 170.616 55.744 171.144 55.744 172.84C55.744 174.488 54.032 175.192 52.432 175.192C50.416 175.192 48.88 174.088 48.752 172.328L50.192 172.232C50.368 173.24 51.168 173.88 52.432 173.88C53.232 173.88 54.304 173.624 54.304 172.76C54.304 171.752 53.12 171.656 52.16 171.432C50.624 171.08 48.96 170.648 48.96 168.984C48.96 167.352 50.272 166.328 52.224 166.328C53.92 166.328 55.312 167.4 55.584 169.048L54.144 169.144ZM57.4675 166.52H58.8435V175H57.4675V166.52ZM57.4355 165.192V163.64H58.8755V165.192H57.4355ZM61.1706 166.52H62.4186L62.4666 167.976C62.8986 166.84 63.8906 166.328 65.0586 166.328C66.9946 166.328 67.9226 167.752 67.9226 169.544V175H66.5466V169.928C66.5466 168.376 66.0346 167.544 64.7706 167.544C63.4266 167.544 62.5466 168.376 62.5466 169.928V175H61.1706V166.52Z" fill="#151515"/>
<rect x="123" y="145" width="101" height="48" rx="6" fill="#F2F2F2"/>
<rect x="123.5" y="145.5" width="100" height="47" rx="5.5" stroke="black" stroke-opacity="0.3"/>
<path d="M166.736 169.368C166.56 168.28 165.648 167.64 164.64 167.64C163.088 167.64 162.192 168.808 162.192 170.76C162.192 172.712 163.088 173.88 164.64 173.88C165.696 173.88 166.608 173.192 166.8 171.992L168.256 172.088C167.984 174.008 166.432 175.192 164.64 175.192C162.288 175.192 160.752 173.464 160.752 170.76C160.752 168.056 162.288 166.328 164.64 166.328C166.368 166.328 167.952 167.448 168.176 169.272L166.736 169.368ZM173.484 175.192C171.132 175.192 169.596 173.464 169.596 170.76C169.596 168.056 171.132 166.328 173.484 166.328C175.836 166.328 177.372 168.056 177.372 170.76C177.372 173.464 175.836 175.192 173.484 175.192ZM171.036 170.76C171.036 172.712 171.932 173.88 173.484 173.88C175.036 173.88 175.932 172.712 175.932 170.76C175.932 168.808 175.036 167.64 173.484 167.64C171.932 167.64 171.036 168.808 171.036 170.76ZM184.269 169.144C184.077 168.2 183.133 167.64 182.205 167.64C181.277 167.64 180.525 168.104 180.525 168.904C180.525 169.736 181.629 170.072 182.525 170.248C184.445 170.616 185.869 171.144 185.869 172.84C185.869 174.488 184.157 175.192 182.557 175.192C180.541 175.192 179.005 174.088 178.877 172.328L180.317 172.232C180.493 173.24 181.293 173.88 182.557 173.88C183.357 173.88 184.429 173.624 184.429 172.76C184.429 171.752 183.245 171.656 182.285 171.432C180.749 171.08 179.085 170.648 179.085 168.984C179.085 167.352 180.397 166.328 182.349 166.328C184.045 166.328 185.437 167.4 185.709 169.048L184.269 169.144Z" fill="#151515"/>
<rect x="242" y="145" width="101" height="48" rx="6" fill="#F2F2F2"/>
<rect x="242.5" y="145.5" width="100" height="47" rx="5.5" stroke="black" stroke-opacity="0.3"/>
<path d="M282.112 164.6H283.488V166.52H285.76V167.736H283.488V172.728C283.488 173.432 283.824 173.784 284.496 173.784H285.728V175H284.496C282.96 175 282.112 174.184 282.112 172.728V167.736H280.88V166.52H282.112V164.6ZM287.255 169.016C287.591 167.368 288.919 166.328 290.727 166.328C292.919 166.328 294.151 167.608 294.151 169.88V173.272C294.151 173.624 294.311 173.784 294.663 173.784H295.015V175H294.423C293.559 175 292.791 174.728 292.791 173.704C292.439 174.472 291.511 175.192 290.167 175.192C288.487 175.192 287.111 174.296 287.111 172.776C287.111 171.016 288.423 170.584 290.311 170.216L292.775 169.736C292.759 168.328 292.087 167.64 290.727 167.64C289.671 167.64 288.967 168.168 288.711 169.128L287.255 169.016ZM288.551 172.776C288.551 173.432 289.111 173.976 290.343 173.976C291.719 173.976 292.807 173.016 292.807 171.032V170.952L290.823 171.304C289.575 171.528 288.551 171.592 288.551 172.776ZM296.733 166.52H297.981L298.029 167.976C298.461 166.84 299.453 166.328 300.621 166.328C302.557 166.328 303.485 167.752 303.485 169.544V175H302.109V169.928C302.109 168.376 301.597 167.544 300.333 167.544C298.989 167.544 298.109 168.376 298.109 169.928V175H296.733V166.52Z" fill="#151515"/>
<rect x="357" y="265" width="99" height="48" rx="6" fill="#B9B9B9"/>
<rect x="357.5" y="265.5" width="98" height="47" rx="5.5" stroke="black" stroke-opacity="0.3"/>
<path d="M404.552 285.4C405.768 285.4 406.296 284.872 406.296 283.64H407.4V295H405.992V286.6H403.64V285.4H404.552Z" fill="#151515"/>
<rect x="472" y="265" width="100" height="48" rx="6" fill="#B9B9B9"/>
<rect x="472.5" y="265.5" width="99" height="47" rx="5.5" stroke="black" stroke-opacity="0.3"/>
<path d="M518.168 287.032C518.472 284.936 519.96 283.384 522.232 283.384C524.312 283.384 525.848 284.76 525.848 286.616C525.848 288.28 524.536 289.4 522.824 290.456C521.976 290.952 519.752 292.488 519.704 293.624H525.944V295H517.96C517.96 291.56 520.424 290.328 522.328 289.112C523.496 288.36 524.376 287.496 524.376 286.616C524.376 285.528 523.496 284.76 522.232 284.76C520.872 284.76 519.944 285.608 519.64 287.128L518.168 287.032Z" fill="#151515"/>
<rect x="588" y="265" width="100" height="48" rx="6" fill="#B9B9B9"/>
<rect x="588.5" y="265.5" width="99" height="47" rx="5.5" stroke="black" stroke-opacity="0.3"/>
<path d="M637.816 288.28C638.872 288.296 640.152 287.816 640.152 286.344C640.152 285.368 639.256 284.76 637.816 284.76C636.648 284.76 635.816 285.32 635.672 286.216L634.2 286.12C634.408 284.52 635.912 283.384 637.816 283.384C640.056 283.384 641.624 284.6 641.624 286.344C641.624 287.608 640.92 288.456 639.544 288.856C641.128 289.32 642.008 290.408 642.008 291.88C642.008 293.864 640.28 295.256 637.816 295.256C635.544 295.256 633.896 293.944 633.8 292.072L635.256 291.976C635.384 293.352 636.712 293.88 637.816 293.88C639.144 293.88 640.552 293.288 640.552 291.768C640.552 290.248 639.144 289.608 637.816 289.64L636.952 289.656V288.264L637.816 288.28Z" fill="#151515"/>
<rect x="473" y="325" width="101" height="48" rx="6" fill="#B9B9B9"/>
<rect x="473.5" y="325.5" width="100" height="47" rx="5.5" stroke="black" stroke-opacity="0.3"/>
<path d="M523.376 355.256C520.608 355.256 518.864 352.968 518.864 349.336C518.864 345.672 520.608 343.384 523.376 343.384C526.144 343.384 527.888 345.672 527.888 349.336C527.888 352.968 526.144 355.256 523.376 355.256ZM520.336 349.336C520.336 352.248 521.424 353.88 523.376 353.88C525.328 353.88 526.416 352.248 526.416 349.336C526.416 346.408 525.328 344.76 523.376 344.76C521.424 344.76 520.336 346.408 520.336 349.336Z" fill="#151515"/>
<rect x="357" y="205" width="101" height="48" rx="6" fill="#B9B9B9"/>
<rect x="357.5" y="205.5" width="100" height="47" rx="5.5" stroke="black" stroke-opacity="0.3"/>
<path d="M410.08 223.64V231.304H411.376V232.68H410.08V235H408.672V232.68H402.8V231.304L408.576 223.64H410.08ZM404.528 231.304H408.672V225.8L404.528 231.304Z" fill="#151515"/>
<rect x="472" y="205" width="101" height="48" rx="6" fill="#B9B9B9"/>
<rect x="472.5" y="205.5" width="100" height="47" rx="5.5" stroke="black" stroke-opacity="0.3"/>
<path d="M525.288 223.64V225.016H520.264L519.8 228.408C520.344 227.784 521.336 227.432 522.312 227.432C524.504 227.432 526.056 229.08 526.056 231.352C526.056 233.64 524.376 235.256 522.088 235.256C519.816 235.256 518.12 233.944 517.96 232.072L519.432 231.976C519.608 233.192 520.744 233.88 522.088 233.88C523.576 233.88 524.584 232.84 524.584 231.352C524.584 229.768 523.56 228.776 521.944 228.776C520.904 228.776 520.024 229.24 519.672 230.04H518.152L519.032 223.64H525.288Z" fill="#151515"/>
<rect x="587" y="205" width="100" height="48" rx="6" fill="#B9B9B9"/>
<rect x="587.5" y="205.5" width="99" height="47" rx="5.5" stroke="black" stroke-opacity="0.3"/>
<path d="M639.504 226.184C639.168 225.272 638.384 224.76 637.328 224.76C635.648 224.76 634.624 226.216 634.4 228.84C635.024 227.816 636.032 227.256 637.248 227.256C639.504 227.256 641.024 228.888 641.024 231.224C641.024 233.704 639.36 235.256 637.008 235.256C636.016 235.256 635.008 234.904 634.176 234.04C633.36 233.208 632.96 231.768 632.96 229.992C632.96 226.584 634.048 223.384 637.328 223.384C639.056 223.384 640.464 224.328 640.976 226.072L639.504 226.184ZM634.496 231.224C634.464 232.776 635.52 233.88 637.04 233.88C638.512 233.88 639.552 232.776 639.552 231.224C639.552 229.704 638.56 228.632 637.152 228.632C635.616 228.632 634.512 229.704 634.496 231.224Z" fill="#151515"/>
<rect x="357" y="145" width="100" height="48" rx="6" fill="#B9B9B9"/>
<rect x="357.5" y="145.5" width="99" height="47" rx="5.5" stroke="black" stroke-opacity="0.3"/>
<path d="M402.64 163.64H410.72V164.952C408.448 167.88 406.848 171.288 406.848 175H405.376C405.376 171.32 406.848 167.912 409.12 165.016H402.64V163.64Z" fill="#151515"/>
<rect x="473" y="145" width="100" height="48" rx="6" fill="#B9B9B9"/>
<rect x="473.5" y="145.5" width="99" height="47" rx="5.5" stroke="black" stroke-opacity="0.3"/>
<path d="M522.832 175.256C520.384 175.256 518.64 173.96 518.64 171.88C518.64 170.472 519.456 169.384 520.816 168.84C519.776 168.392 519.184 167.656 519.184 166.504C519.184 164.712 520.72 163.384 522.832 163.384C524.96 163.384 526.48 164.712 526.48 166.504C526.48 167.656 525.872 168.392 524.848 168.84C526.208 169.4 527.024 170.488 527.024 171.88C527.024 173.96 525.28 175.256 522.832 175.256ZM520.112 171.768C520.112 173.064 521.168 173.88 522.832 173.88C524.496 173.88 525.552 173.064 525.552 171.768C525.552 170.472 524.496 169.656 522.832 169.656C521.168 169.656 520.112 170.472 520.112 171.768ZM520.656 166.504C520.656 167.576 521.488 168.248 522.832 168.248C524.176 168.248 525.008 167.576 525.008 166.504C525.008 165.432 524.176 164.76 522.832 164.76C521.488 164.76 520.656 165.432 520.656 166.504Z" fill="#151515"/>
<rect x="589" y="145" width="100" height="48" rx="6" fill="#B9B9B9"/>
<rect x="589.5" y="145.5" width="99" height="47" rx="5.5" stroke="black" stroke-opacity="0.3"/>
<path d="M634.96 167.416C634.96 164.936 636.624 163.384 638.976 163.384C639.968 163.384 640.976 163.736 641.808 164.584C642.624 165.432 643.024 166.872 643.024 168.648C643.024 172.056 641.936 175.256 638.656 175.256C637.008 175.256 635.648 174.392 635.088 172.792L636.576 172.68C636.944 173.448 637.696 173.88 638.656 173.88C640.336 173.88 641.36 172.424 641.584 169.8C640.96 170.824 639.952 171.384 638.736 171.384C636.48 171.384 634.96 169.752 634.96 167.416ZM636.432 167.416C636.432 168.936 637.424 170.008 638.832 170.008C640.368 170.008 641.472 168.936 641.488 167.416C641.52 165.864 640.464 164.76 638.944 164.76C637.472 164.76 636.432 165.864 636.432 167.416Z" fill="#151515"/>
<rect x="9" y="265" width="101" height="48" rx="6" fill="#F2F2F2"/>
<rect x="9.5" y="265.5" width="100" height="47" rx="5.5" stroke="black" stroke-opacity="0.3"/>
<path d="M54.88 286.52H63.968V287.736H62.336V292.648C62.336 293.352 62.72 293.784 63.424 293.784H63.936V295H63.424C61.68 295 60.96 294.072 60.96 292.648V287.736H57.968V295H56.592V287.736H54.88V286.52Z" fill="#151515"/>
<rect x="9" y="325" width="100" height="48" rx="6" fill="#F2F2F2"/>
<rect x="9.5" y="325.5" width="99" height="47" rx="5.5" stroke="black" stroke-opacity="0.3"/>
<path d="M48.28 343.64H49.656V353.272C49.656 353.624 49.816 353.784 50.168 353.784H50.904V355H49.944C48.952 355 48.28 354.328 48.28 353.336V343.64ZM56.0306 355.192C53.6786 355.192 52.1426 353.464 52.1426 350.76C52.1426 348.056 53.6786 346.328 56.0306 346.328C58.3826 346.328 59.9186 348.056 59.9186 350.76C59.9186 353.464 58.3826 355.192 56.0306 355.192ZM53.5826 350.76C53.5826 352.712 54.4786 353.88 56.0306 353.88C57.5826 353.88 58.4786 352.712 58.4786 350.76C58.4786 348.808 57.5826 347.64 56.0306 347.64C54.4786 347.64 53.5826 348.808 53.5826 350.76ZM65.1679 354.552C62.9759 354.552 61.4239 352.856 61.4239 350.44C61.4239 348.024 62.9599 346.328 65.1519 346.328C66.3039 346.328 67.2639 346.904 67.6479 347.832V346.52H68.9599V354.168C68.9599 356.408 67.4239 357.592 65.1999 357.592C63.3919 357.592 62.0479 356.616 61.6479 355.128L63.0879 355.032C63.4399 355.816 64.1599 356.28 65.1999 356.28C66.6879 356.28 67.5839 355.656 67.5839 354.488V353.096C67.1679 353.992 66.2399 354.552 65.1679 354.552ZM62.8639 350.44C62.8639 352.168 63.7759 353.24 65.2479 353.24C66.6719 353.24 67.5839 352.168 67.5999 350.44C67.6319 348.712 66.7199 347.64 65.2479 347.64C63.7759 347.64 62.8639 348.712 62.8639 350.44Z" fill="#151515"/>
<rect x="123" y="325" width="100" height="48" rx="6" fill="#F2F2F2"/>
<rect x="123.5" y="325.5" width="99" height="47" rx="5.5" stroke="black" stroke-opacity="0.3"/>
<path d="M167.28 343.64H168.656V353.272C168.656 353.624 168.816 353.784 169.168 353.784H169.904V355H168.944C167.952 355 167.28 354.328 167.28 353.336V343.64ZM171.702 346.52H172.95L172.998 347.976C173.43 346.84 174.422 346.328 175.59 346.328C177.526 346.328 178.454 347.752 178.454 349.544V355H177.078V349.928C177.078 348.376 176.566 347.544 175.302 347.544C173.958 347.544 173.078 348.376 173.078 349.928V355H171.702V346.52Z" fill="#151515"/>
<rect x="240" y="265" width="100" height="48" rx="6" fill="#F2F2F2"/>
<rect x="240.5" y="265.5" width="99" height="47" rx="5.5" stroke="black" stroke-opacity="0.3"/>
<path d="M294.424 283.64V284.856H291L288.584 297.4H286.968L285.352 289.624H286.664L287.752 294.952L289.928 283.64H294.424Z" fill="#151515"/>
<rect x="240" y="325" width="101" height="48" rx="6" fill="#F2F2F2"/>
<rect x="240.5" y="325.5" width="100" height="47" rx="5.5" stroke="black" stroke-opacity="0.3"/>
<path d="M291.336 348.872L290.216 345.528L289.096 348.872H287.752L289.352 344.232H291.08L292.68 348.872H291.336Z" fill="#151515"/>
<rect x="356" y="325" width="100" height="48" rx="6" fill="#F2F2F2"/>
<rect x="356.5" y="325.5" width="99" height="47" rx="5.5" stroke="black" stroke-opacity="0.3"/>
<path d="M404.752 353.24H406.496V355H404.752V353.24Z" fill="#151515"/>
<rect x="123" y="265" width="100" height="48" rx="6" fill="#F2F2F2"/>
<rect x="123.5" y="265.5" width="99" height="47" rx="5.5" stroke="black" stroke-opacity="0.3"/>
<path d="M168.752 290.76C168.752 288.056 170.288 286.328 172.64 286.328C174.496 286.328 176.176 287.528 176.32 290.568L176.336 291.192H170.208C170.336 292.888 171.2 293.88 172.64 293.88C173.536 293.88 174.352 293.368 174.736 292.488L176.208 292.6C175.712 294.2 174.272 295.192 172.64 295.192C170.288 295.192 168.752 293.464 168.752 290.76ZM170.24 289.976H174.832C174.592 288.216 173.648 287.64 172.64 287.64C171.312 287.64 170.464 288.504 170.24 289.976Z" fill="#151515"/>
<rect x="9" y="87" width="219" height="48" rx="6" fill="#F2F2F2"/>
<rect x="9.5" y="87.5" width="218" height="47" rx="5.5" stroke="black" stroke-opacity="0.3"/>
<line x1="118.5" y1="94" x2="118.5" y2="128" stroke="black" stroke-opacity="0.3"/>
<path d="M163.792 105.64C166.176 105.64 167.664 106.968 167.664 109.08C167.664 110.408 166.752 111.416 165.744 111.704C166.864 111.88 167.344 112.456 167.456 113.656L167.776 117H166.352L166.064 113.8C165.968 112.776 165.296 112.44 163.648 112.44H160.88V117H159.472V105.64H163.792ZM160.88 111.064H163.792C165.328 111.064 166.192 110.344 166.192 109.048C166.192 107.752 165.328 107.016 163.792 107.016H160.88V111.064ZM169.662 111.016C169.998 109.368 171.326 108.328 173.134 108.328C175.326 108.328 176.558 109.608 176.558 111.88V115.272C176.558 115.624 176.718 115.784 177.07 115.784H177.422V117H176.83C175.966 117 175.198 116.728 175.198 115.704C174.846 116.472 173.918 117.192 172.574 117.192C170.894 117.192 169.518 116.296 169.518 114.776C169.518 113.016 170.83 112.584 172.718 112.216L175.182 111.736C175.166 110.328 174.494 109.64 173.134 109.64C172.078 109.64 171.374 110.168 171.118 111.128L169.662 111.016ZM170.958 114.776C170.958 115.432 171.518 115.976 172.75 115.976C174.126 115.976 175.214 115.016 175.214 113.032V112.952L173.23 113.304C171.982 113.528 170.958 113.592 170.958 114.776ZM186.132 105.64V117H184.884L184.836 115.816C184.372 116.664 183.348 117.192 182.164 117.192C179.956 117.192 178.58 115.48 178.58 112.76C178.58 110.04 179.956 108.328 182.164 108.328C183.3 108.328 184.292 108.824 184.756 109.608V105.64H186.132ZM180.02 112.76C180.02 114.68 180.964 115.88 182.452 115.88C183.94 115.88 184.884 114.68 184.884 112.76C184.884 110.808 183.94 109.576 182.452 109.576C180.964 109.576 180.02 110.808 180.02 112.76Z" fill="black" fill-opacity="0.3"/>
<path d="M53.992 105.64C57.496 105.64 59.464 107.688 59.464 111.336C59.464 114.968 57.544 117 54.088 117H50.472V105.64H53.992ZM51.88 115.624H53.992C56.664 115.624 57.992 114.2 57.992 111.336C57.992 108.44 56.664 107.016 53.992 107.016H51.88V115.624ZM61.002 112.76C61.002 110.056 62.538 108.328 64.89 108.328C66.746 108.328 68.426 109.528 68.57 112.568L68.586 113.192H62.458C62.586 114.888 63.45 115.88 64.89 115.88C65.786 115.88 66.602 115.368 66.986 114.488L68.458 114.6C67.962 116.2 66.522 117.192 64.89 117.192C62.538 117.192 61.002 115.464 61.002 112.76ZM62.49 111.976H67.082C66.842 110.216 65.898 109.64 64.89 109.64C63.562 109.64 62.714 110.504 62.49 111.976ZM73.8398 116.552C71.6478 116.552 70.0958 114.856 70.0958 112.44C70.0958 110.024 71.6318 108.328 73.8238 108.328C74.9758 108.328 75.9358 108.904 76.3198 109.832V108.52H77.6318V116.168C77.6318 118.408 76.0958 119.592 73.8718 119.592C72.0638 119.592 70.7198 118.616 70.3198 117.128L71.7598 117.032C72.1118 117.816 72.8318 118.28 73.8718 118.28C75.3598 118.28 76.2558 117.656 76.2558 116.488V115.096C75.8398 115.992 74.9118 116.552 73.8398 116.552ZM71.5358 112.44C71.5358 114.168 72.4478 115.24 73.9198 115.24C75.3438 115.24 76.2558 114.168 76.2718 112.44C76.3038 110.712 75.3918 109.64 73.9198 109.64C72.4478 109.64 71.5358 110.712 71.5358 112.44Z" fill="black"/>
<rect x="243" y="87" width="99" height="48" rx="6" fill="#F2F2F2"/>
<rect x="243.5" y="87.5" width="98" height="47" rx="5.5" stroke="black" stroke-opacity="0.3"/>
<path d="M292.8 108.52H294.496L291.568 112.664L294.64 117H292.96L290.704 113.72L288.432 117H286.752L289.856 112.648L286.912 108.52H288.592L290.704 111.592L292.8 108.52ZM296.479 105.64H297.887V109.32C297.887 110.792 297.711 112.248 297.631 113.72H296.735C296.655 112.248 296.479 110.792 296.479 109.32V105.64ZM296.255 117V115.24H297.999V117H296.255Z" fill="#151515"/>
<rect x="357" y="87" width="100" height="48" rx="6" fill="#F2F2F2"/>
<rect x="357.5" y="87.5" width="99" height="47" rx="5.5" stroke="black" stroke-opacity="0.3"/>
<path d="M408.256 105C405.536 109.592 405.536 114.168 408.256 118.76H406.976C404 114.344 404 109.416 406.976 105H408.256Z" fill="#151515"/>
<rect x="472" y="87" width="100" height="48" rx="6" fill="#F2F2F2"/>
<rect x="472.5" y="87.5" width="99" height="47" rx="5.5" stroke="black" stroke-opacity="0.3"/>
<path d="M521.032 105C524.008 109.416 524.008 114.344 521.032 118.76H519.752C522.472 114.168 522.472 109.592 519.752 105H521.032Z" fill="#151515"/>
<rect x="587" y="87" width="101" height="48" rx="6" fill="#F2F2F2"/>
<rect x="587.5" y="87.5" width="100" height="47" rx="5.5" stroke="black" stroke-opacity="0.3"/>
<path d="M640.568 105.384H642.12L633.832 117.192H632.28L640.568 105.384ZM631.752 108.408C631.752 106.856 632.776 105.624 634.072 105.624C635.368 105.624 636.392 106.856 636.392 108.408C636.392 109.96 635.368 111.192 634.072 111.192C632.776 111.192 631.752 109.96 631.752 108.408ZM632.984 108.408C632.984 109.352 633.4 109.944 634.072 109.944C634.744 109.944 635.176 109.352 635.176 108.408C635.176 107.464 634.744 106.872 634.072 106.872C633.4 106.872 632.984 107.464 632.984 108.408ZM637.928 114.216C637.928 112.664 638.952 111.432 640.248 111.432C641.544 111.432 642.568 112.664 642.568 114.216C642.568 115.768 641.544 117 640.248 117C638.952 117 637.928 115.768 637.928 114.216ZM639.16 114.216C639.16 115.16 639.576 115.752 640.248 115.752C640.92 115.752 641.352 115.16 641.352 114.216C641.352 113.272 640.92 112.68 640.248 112.68C639.576 112.68 639.16 113.272 639.16 114.216Z" fill="#151515"/>
<rect x="703" y="87" width="100" height="48" rx="6" fill="#F2F2F2"/>
<rect x="703.5" y="87.5" width="99" height="47" rx="5.5" stroke="black" stroke-opacity="0.3"/>
<path d="M742.336 117L746.432 105.64H748.32L752.416 117H750.88L749.76 113.784H744.992L743.872 117H742.336ZM745.472 112.408H749.28L747.376 106.872L745.472 112.408ZM762.794 113.256C762.378 115.64 760.826 117.256 758.202 117.256C754.922 117.256 753.05 114.616 753.05 111.336C753.05 108.04 754.906 105.384 758.202 105.384C760.618 105.384 762.202 106.888 762.698 109.128L761.21 109.224C760.842 107.64 759.754 106.76 758.202 106.76C755.61 106.76 754.522 108.904 754.522 111.336C754.522 113.752 755.626 115.88 758.202 115.88C759.85 115.88 760.954 114.904 761.29 113.16L762.794 113.256Z" fill="#151515"/>
<rect x="588" y="325" width="99" height="48" rx="6" fill="#151515"/>
<rect x="588.5" y="325.5" width="98" height="47" rx="5.5" stroke="black" stroke-opacity="0.3"/>
<path d="M633.472 347.928H641.088V349.208H633.472V347.928ZM633.472 352.504V351.224H641.088V352.504H633.472Z" fill="white"/>
<rect x="9" y="205" width="100" height="48" rx="6" fill="#F2F2F2"/>
<rect x="9.5" y="205.5" width="99" height="47" rx="5.5" stroke="black" stroke-opacity="0.3"/>
<path d="M54.144 229.144C53.952 228.2 53.008 227.64 52.08 227.64C51.152 227.64 50.4 228.104 50.4 228.904C50.4 229.736 51.504 230.072 52.4 230.248C54.32 230.616 55.744 231.144 55.744 232.84C55.744 234.488 54.032 235.192 52.432 235.192C50.416 235.192 48.88 234.088 48.752 232.328L50.192 232.232C50.368 233.24 51.168 233.88 52.432 233.88C53.232 233.88 54.304 233.624 54.304 232.76C54.304 231.752 53.12 231.656 52.16 231.432C50.624 231.08 48.96 230.648 48.96 228.984C48.96 227.352 50.272 226.328 52.224 226.328C53.92 226.328 55.312 227.4 55.584 229.048L54.144 229.144ZM57.4675 226.52H58.8435V235H57.4675V226.52ZM57.4355 225.192V223.64H58.8755V225.192H57.4355ZM61.1706 226.52H62.4186L62.4666 227.976C62.8986 226.84 63.8906 226.328 65.0586 226.328C66.9946 226.328 67.9226 227.752 67.9226 229.544V235H66.5466V229.928C66.5466 228.376 66.0346 227.544 64.7706 227.544C63.4266 227.544 62.5466 228.376 62.5466 229.928V235H61.1706V226.52Z" fill="#151515"/>
<path d="M70.47 221.68H73.79V222.48H70.47V221.68ZM75.2278 219C75.9878 219 76.3178 218.67 76.3178 217.9H77.0078V225H76.1278V219.75H74.6578V219H75.2278Z" fill="#151515"/>
<rect x="703" y="145" width="100" height="48" rx="6" fill="#E8E8E8"/>
<rect x="703.5" y="145.5" width="99" height="47" rx="5.5" stroke="black" stroke-opacity="0.3"/>
<path d="M748.752 169.16H756.368V170.44H748.752V169.16ZM751.728 172.728C751.728 172.2 752.128 171.816 752.656 171.816C753.184 171.816 753.584 172.2 753.584 172.728C753.584 173.256 753.184 173.64 752.656 173.64C752.128 173.64 751.728 173.256 751.728 172.728ZM751.728 166.76C751.728 166.232 752.128 165.848 752.656 165.848C753.184 165.848 753.584 166.232 753.584 166.76C753.584 167.288 753.184 167.672 752.656 167.672C752.128 167.672 751.728 167.288 751.728 166.76Z" fill="#151515"/>
<rect x="703" y="205" width="100" height="48" rx="6" fill="#E8E8E8"/>
<rect x="703.5" y="205.5" width="99" height="47" rx="5.5" stroke="black" stroke-opacity="0.3"/>
<path d="M754.8 226.52H756.496L753.568 230.664L756.64 235H754.96L752.704 231.72L750.432 235H748.752L751.856 230.648L748.912 226.52H750.592L752.704 229.592L754.8 226.52Z" fill="#151515"/>
<rect x="703" y="265" width="101" height="48" rx="6" fill="#E8E8E8"/>
<rect x="703.5" y="265.5" width="100" height="47" rx="5.5" stroke="black" stroke-opacity="0.3"/>
<path d="M750.752 289.688H756.064V290.968H750.752V289.688Z" fill="#151515"/>
<rect x="703" y="325" width="100" height="48" rx="6" fill="#E8E8E8"/>
<rect x="703.5" y="325.5" width="99" height="47" rx="5.5" stroke="black" stroke-opacity="0.3"/>
<path d="M748.752 349.64H751.92V346.472H753.2V349.64H756.368V350.92H753.2V354.088H751.92V350.92H748.752V349.64Z" fill="#151515"/>
<rect x="123" y="205" width="101" height="48" rx="6" fill="#F2F2F2"/>
<rect x="123.5" y="205.5" width="100" height="47" rx="5.5" stroke="black" stroke-opacity="0.3"/>
<path d="M166.736 229.368C166.56 228.28 165.648 227.64 164.64 227.64C163.088 227.64 162.192 228.808 162.192 230.76C162.192 232.712 163.088 233.88 164.64 233.88C165.696 233.88 166.608 233.192 166.8 231.992L168.256 232.088C167.984 234.008 166.432 235.192 164.64 235.192C162.288 235.192 160.752 233.464 160.752 230.76C160.752 228.056 162.288 226.328 164.64 226.328C166.368 226.328 167.952 227.448 168.176 229.272L166.736 229.368ZM173.484 235.192C171.132 235.192 169.596 233.464 169.596 230.76C169.596 228.056 171.132 226.328 173.484 226.328C175.836 226.328 177.372 228.056 177.372 230.76C177.372 233.464 175.836 235.192 173.484 235.192ZM171.036 230.76C171.036 232.712 171.932 233.88 173.484 233.88C175.036 233.88 175.932 232.712 175.932 230.76C175.932 228.808 175.036 227.64 173.484 227.64C171.932 227.64 171.036 228.808 171.036 230.76ZM184.269 229.144C184.077 228.2 183.133 227.64 182.205 227.64C181.277 227.64 180.525 228.104 180.525 228.904C180.525 229.736 181.629 230.072 182.525 230.248C184.445 230.616 185.869 231.144 185.869 232.84C185.869 234.488 184.157 235.192 182.557 235.192C180.541 235.192 179.005 234.088 178.877 232.328L180.317 232.232C180.493 233.24 181.293 233.88 182.557 233.88C183.357 233.88 184.429 233.624 184.429 232.76C184.429 231.752 183.245 231.656 182.285 231.432C180.749 231.08 179.085 230.648 179.085 228.984C179.085 227.352 180.397 226.328 182.349 226.328C184.045 226.328 185.437 227.4 185.709 229.048L184.269 229.144Z" fill="#151515"/>
<path d="M186.47 221.68H189.79V222.48H186.47V221.68ZM191.228 219C191.988 219 192.318 218.67 192.318 217.9H193.008V225H192.128V219.75H190.658V219H191.228Z" fill="#151515"/>
<rect x="242" y="205" width="101" height="48" rx="6" fill="#F2F2F2"/>
<rect x="242.5" y="205.5" width="100" height="47" rx="5.5" stroke="black" stroke-opacity="0.3"/>
<path d="M282.112 224.6H283.488V226.52H285.76V227.736H283.488V232.728C283.488 233.432 283.824 233.784 284.496 233.784H285.728V235H284.496C282.96 235 282.112 234.184 282.112 232.728V227.736H280.88V226.52H282.112V224.6ZM287.255 229.016C287.591 227.368 288.919 226.328 290.727 226.328C292.919 226.328 294.151 227.608 294.151 229.88V233.272C294.151 233.624 294.311 233.784 294.663 233.784H295.015V235H294.423C293.559 235 292.791 234.728 292.791 233.704C292.439 234.472 291.511 235.192 290.167 235.192C288.487 235.192 287.111 234.296 287.111 232.776C287.111 231.016 288.423 230.584 290.311 230.216L292.775 229.736C292.759 228.328 292.087 227.64 290.727 227.64C289.671 227.64 288.967 228.168 288.711 229.128L287.255 229.016ZM288.551 232.776C288.551 233.432 289.111 233.976 290.343 233.976C291.719 233.976 292.807 233.016 292.807 231.032V230.952L290.823 231.304C289.575 231.528 288.551 231.592 288.551 232.776ZM296.733 226.52H297.981L298.029 227.976C298.461 226.84 299.453 226.328 300.621 226.328C302.557 226.328 303.485 227.752 303.485 229.544V235H302.109V229.928C302.109 228.376 301.597 227.544 300.333 227.544C298.989 227.544 298.109 228.376 298.109 229.928V235H296.733V226.52Z" fill="#151515"/>
<path d="M303.47 221.68H306.79V222.48H303.47V221.68ZM308.228 219C308.988 219 309.318 218.67 309.318 217.9H310.008V225H309.128V219.75H307.658V219H308.228Z" fill="#151515"/>
<rect width="813" height="384" fill="url(#paint0_radial_277_906)"/>
<rect width="813" height="384" fill="black" fill-opacity="0.2"/>
<defs>
<radialGradient id="paint0_radial_277_906" cx="0" cy="0" r="1" gradientUnits="userSpaceOnUse" gradientTransform="translate(406.5 192) rotate(90) scale(192 406.5)">
<stop/>
<stop offset="0.0001" stop-color="#202020" stop-opacity="0.64"/>
<stop offset="1" stop-opacity="0.78"/>
</radialGradient>
</defs>
</svg>
