<svg width="189" height="37" viewBox="0 0 189 37" fill="none" xmlns="http://www.w3.org/2000/svg">
<path d="M3.712 4.52C3.712 3.592 3.6 2.872 3.376 2.36C3.152 1.816 2.864 1.416 2.512 1.16C2.16 0.871998 1.776 0.695998 1.36 0.631999C0.976 0.535998 0.608 0.487998 0.256 0.487998V0.0559978H14.08C15.456 0.0559978 16.768 0.167998 18.016 0.391999C19.264 0.615998 20.352 1.064 21.28 1.736C22.24 2.376 22.992 3.304 23.536 4.52C24.112 5.736 24.4 7.352 24.4 9.368C24.4 13.304 23.312 16.2 21.136 18.056C18.96 19.912 15.888 20.808 11.92 20.744L7.648 20.696V30.488C7.648 31.416 7.76 32.152 7.984 32.696C8.208 33.24 8.496 33.656 8.848 33.944C9.2 34.2 9.584 34.36 10 34.424C10.416 34.488 10.8 34.52 11.152 34.52V35H0.16V34.52C0.512 34.52 0.896 34.488 1.312 34.424C1.728 34.36 2.112 34.2 2.464 33.944C2.816 33.656 3.104 33.24 3.328 32.696C3.584 32.152 3.712 31.416 3.712 30.488V4.52ZM7.648 18.68L12.4 19.976C13.04 20.136 13.584 20.216 14.032 20.216C15.728 20.216 17.168 19.368 18.352 17.672C19.536 15.944 20.128 13.192 20.128 9.416C20.128 7.24 19.92 5.576 19.504 4.424C19.12 3.24 18.576 2.392 17.872 1.88C17.168 1.336 16.336 1.016 15.376 0.919998C14.448 0.823997 13.456 0.775997 12.4 0.775997H10.816C10.464 0.775997 10.096 0.807998 9.712 0.871999C9.36 0.903998 9.024 1.048 8.704 1.304C8.384 1.528 8.128 1.896 7.936 2.408C7.744 2.92 7.648 3.64 7.648 4.568V18.68ZM33.1 35.768C31.916 35.768 30.812 35.608 29.788 35.288C28.796 34.968 27.948 34.52 27.244 33.944C26.54 33.368 25.996 32.68 25.612 31.88C25.26 31.08 25.1 30.216 25.132 29.288C25.196 28.04 25.596 27 26.332 26.168C27.068 25.304 27.948 24.6 28.972 24.056C29.996 23.512 31.084 23.112 32.236 22.856C33.42 22.568 34.492 22.392 35.452 22.328C37.18 22.2 38.396 21.784 39.1 21.08C39.836 20.376 40.236 19.464 40.3 18.344C40.396 17 40.124 16.04 39.484 15.464C38.844 14.856 38.012 14.552 36.988 14.552C35.452 14.552 33.804 15.064 32.044 16.088C31.82 16.216 31.516 16.552 31.132 17.096C30.748 17.64 30.348 18.216 29.932 18.824C29.516 19.4 29.116 19.928 28.732 20.408C28.348 20.856 28.012 21.08 27.724 21.08L27.964 16.952C28.316 16.792 28.908 16.488 29.74 16.04C30.572 15.56 31.372 15.208 32.14 14.984C32.972 14.728 33.98 14.488 35.164 14.264C36.348 14.008 37.516 13.88 38.668 13.88C39.34 13.88 39.98 13.944 40.588 14.072C41.196 14.2 41.724 14.424 42.172 14.744C42.62 15.032 42.972 15.448 43.228 15.992C43.484 16.504 43.58 17.144 43.516 17.912C43.484 18.68 43.228 19.352 42.748 19.928C42.3 20.472 41.708 20.952 40.972 21.368C40.268 21.752 39.452 22.072 38.524 22.328C37.596 22.584 36.62 22.808 35.596 23C34.892 23.128 34.156 23.336 33.388 23.624C32.652 23.912 31.964 24.296 31.324 24.776C30.716 25.256 30.188 25.848 29.74 26.552C29.292 27.224 29.02 28.04 28.924 29C28.86 29.8 28.924 30.568 29.116 31.304C29.308 32.008 29.596 32.648 29.98 33.224C30.364 33.768 30.828 34.2 31.372 34.52C31.948 34.84 32.54 35 33.148 35C34.204 35 35.116 34.808 35.884 34.424C36.684 34.008 37.34 33.512 37.852 32.936C38.396 32.328 38.812 31.704 39.1 31.064C39.42 30.392 39.66 29.8 39.82 29.288L39.34 28.28C39.212 27.864 39.196 27.576 39.292 27.416C39.42 27.224 39.596 27.048 39.82 26.888C40.076 26.696 40.364 26.456 40.684 26.168C41.036 25.848 41.404 25.352 41.788 24.68L44.188 30.344C44.924 32.104 45.66 33.256 46.396 33.8C47.132 34.312 47.852 34.568 48.556 34.568L48.652 35H44.476C44.028 35 43.5 34.824 42.892 34.472C42.316 34.088 41.9 33.656 41.644 33.176L40.156 29.96C39.932 30.568 39.628 31.208 39.244 31.88C38.892 32.552 38.428 33.176 37.852 33.752C37.308 34.328 36.636 34.808 35.836 35.192C35.068 35.576 34.156 35.768 33.1 35.768ZM49.5996 30.488C50.0156 30.488 50.3676 30.728 50.6556 31.208C50.9436 31.656 51.3116 32.168 51.7596 32.744C52.2396 33.32 52.8636 33.848 53.6316 34.328C54.3996 34.776 55.4556 35 56.7996 35C58.3676 35 59.6476 34.664 60.6396 33.992C61.6636 33.288 62.1756 32.392 62.1756 31.304C62.1756 30.408 61.8556 29.656 61.2156 29.048C60.5756 28.44 59.7596 27.896 58.7676 27.416C57.8076 26.936 56.7676 26.472 55.6476 26.024C54.5276 25.544 53.4716 25.016 52.4796 24.44C51.5196 23.864 50.7196 23.192 50.0796 22.424C49.4396 21.656 49.1196 20.712 49.1196 19.592C49.1196 18.664 49.3436 17.896 49.7916 17.288C50.2396 16.648 50.8156 16.136 51.5196 15.752C52.2236 15.368 53.0236 15.096 53.9196 14.936C54.8156 14.744 55.7116 14.648 56.6076 14.648C57.1196 14.648 57.6956 14.68 58.3356 14.744C59.0076 14.776 59.6476 14.824 60.2556 14.888C60.8956 14.952 61.4716 15.032 61.9836 15.128C62.5276 15.224 62.9276 15.304 63.1836 15.368L63.0396 19.496C62.5916 19.496 62.1916 19.272 61.8396 18.824C61.5196 18.344 61.1356 17.832 60.6876 17.288C60.2716 16.744 59.7596 16.248 59.1516 15.8C58.5436 15.32 57.7436 15.08 56.7516 15.08C56.4636 15.08 56.0956 15.112 55.6476 15.176C55.1996 15.24 54.7676 15.384 54.3516 15.608C53.9356 15.8 53.5676 16.088 53.2476 16.472C52.9596 16.856 52.8156 17.352 52.8156 17.96C52.8156 18.856 53.1356 19.608 53.7756 20.216C54.4156 20.824 55.2156 21.368 56.1756 21.848C57.1356 22.296 58.1756 22.744 59.2956 23.192C60.4476 23.608 61.5036 24.088 62.4636 24.632C63.4236 25.144 64.2236 25.768 64.8636 26.504C65.5036 27.208 65.8236 28.104 65.8236 29.192C65.8236 30.056 65.5836 30.888 65.1036 31.688C64.6556 32.488 63.9996 33.192 63.1356 33.8C62.3036 34.376 61.2796 34.84 60.0636 35.192C58.8796 35.544 57.5676 35.72 56.1276 35.72C54.5916 35.72 53.2476 35.576 52.0956 35.288C50.9756 35 50.0956 34.776 49.4556 34.616L49.5996 30.488ZM67.7166 25.16C67.8446 23.752 68.2126 22.424 68.8206 21.176C69.4606 19.928 70.2926 18.84 71.3166 17.912C72.3406 16.952 73.5246 16.2 74.8686 15.656C76.2126 15.112 77.6686 14.84 79.2366 14.84C80.2926 14.84 81.2206 14.968 82.0206 15.224C82.8206 15.448 83.4926 15.72 84.0366 16.04C84.6126 16.328 85.0606 16.632 85.3806 16.952C85.7006 17.24 85.9086 17.448 86.0046 17.576L85.2366 21.752C84.7886 21.752 84.4846 21.432 84.3246 20.792C84.1646 20.12 83.9246 19.4 83.6046 18.632C83.3166 17.832 82.8366 17.112 82.1646 16.472C81.5246 15.8 80.5006 15.464 79.0926 15.464C78.1326 15.464 77.2526 15.72 76.4526 16.232C75.6526 16.744 74.9326 17.432 74.2926 18.296C73.6846 19.128 73.1726 20.12 72.7566 21.272C72.3726 22.392 72.1326 23.576 72.0366 24.824C71.9086 26.36 72.0206 27.736 72.3726 28.952C72.7246 30.136 73.2686 31.144 74.0046 31.976C74.7726 32.776 75.7006 33.4 76.7886 33.848C77.9086 34.264 79.1246 34.456 80.4366 34.424C81.5566 34.392 82.5326 34.2 83.3646 33.848C84.2286 33.496 84.9486 33.08 85.5246 32.6C86.1006 32.088 86.5486 31.576 86.8686 31.064C87.1886 30.52 87.4126 30.072 87.5406 29.72H88.1166C87.9886 30.136 87.7166 30.68 87.3006 31.352C86.8846 32.024 86.2926 32.696 85.5246 33.368C84.7886 34.008 83.8446 34.552 82.6926 35C81.5406 35.48 80.1646 35.736 78.5646 35.768C76.8046 35.8 75.2206 35.56 73.8126 35.048C72.4046 34.536 71.2206 33.816 70.2606 32.888C69.3006 31.928 68.5966 30.792 68.1486 29.48C67.7326 28.168 67.5886 26.728 67.7166 25.16ZM97.1781 35.768C95.9941 35.768 94.8901 35.608 93.8661 35.288C92.8741 34.968 92.0261 34.52 91.3221 33.944C90.6181 33.368 90.0741 32.68 89.6901 31.88C89.3381 31.08 89.1781 30.216 89.2101 29.288C89.2741 28.04 89.6741 27 90.4101 26.168C91.1461 25.304 92.0261 24.6 93.0501 24.056C94.0741 23.512 95.1621 23.112 96.3141 22.856C97.4981 22.568 98.5701 22.392 99.5301 22.328C101.258 22.2 102.474 21.784 103.178 21.08C103.914 20.376 104.314 19.464 104.378 18.344C104.474 17 104.202 16.04 103.562 15.464C102.922 14.856 102.09 14.552 101.066 14.552C99.5301 14.552 97.8821 15.064 96.1221 16.088C95.8981 16.216 95.5941 16.552 95.2101 17.096C94.8261 17.64 94.4261 18.216 94.0101 18.824C93.5941 19.4 93.1941 19.928 92.8101 20.408C92.4261 20.856 92.0901 21.08 91.8021 21.08L92.0421 16.952C92.3941 16.792 92.9861 16.488 93.8181 16.04C94.6501 15.56 95.4501 15.208 96.2181 14.984C97.0501 14.728 98.0581 14.488 99.2421 14.264C100.426 14.008 101.594 13.88 102.746 13.88C103.418 13.88 104.058 13.944 104.666 14.072C105.274 14.2 105.802 14.424 106.25 14.744C106.698 15.032 107.05 15.448 107.306 15.992C107.562 16.504 107.658 17.144 107.594 17.912C107.562 18.68 107.306 19.352 106.826 19.928C106.378 20.472 105.786 20.952 105.05 21.368C104.346 21.752 103.53 22.072 102.602 22.328C101.674 22.584 100.698 22.808 99.6741 23C98.9701 23.128 98.2341 23.336 97.4661 23.624C96.7301 23.912 96.0421 24.296 95.4021 24.776C94.7941 25.256 94.2661 25.848 93.8181 26.552C93.3701 27.224 93.0981 28.04 93.0021 29C92.9381 29.8 93.0021 30.568 93.1941 31.304C93.3861 32.008 93.6741 32.648 94.0581 33.224C94.4421 33.768 94.9061 34.2 95.4501 34.52C96.0261 34.84 96.6181 35 97.2261 35C98.2821 35 99.1941 34.808 99.9621 34.424C100.762 34.008 101.418 33.512 101.93 32.936C102.474 32.328 102.89 31.704 103.178 31.064C103.498 30.392 103.738 29.8 103.898 29.288L103.418 28.28C103.29 27.864 103.274 27.576 103.37 27.416C103.498 27.224 103.674 27.048 103.898 26.888C104.154 26.696 104.442 26.456 104.762 26.168C105.114 25.848 105.482 25.352 105.866 24.68L108.266 30.344C109.002 32.104 109.738 33.256 110.474 33.8C111.21 34.312 111.93 34.568 112.634 34.568L112.73 35H108.554C108.106 35 107.578 34.824 106.97 34.472C106.394 34.088 105.978 33.656 105.722 33.176L104.234 29.96C104.01 30.568 103.706 31.208 103.322 31.88C102.97 32.552 102.506 33.176 101.93 33.752C101.386 34.328 100.714 34.808 99.9141 35.192C99.1461 35.576 98.2341 35.768 97.1781 35.768ZM119.086 30.536C119.086 31.464 119.198 32.2 119.422 32.744C119.646 33.256 119.934 33.656 120.286 33.944C120.638 34.2 121.022 34.376 121.438 34.472C121.854 34.536 122.238 34.568 122.59 34.568V35H111.694V34.568C112.046 34.568 112.43 34.536 112.846 34.472C113.262 34.376 113.646 34.2 113.998 33.944C114.35 33.656 114.638 33.24 114.862 32.696C115.086 32.152 115.198 31.416 115.198 30.488V6.296C115.198 5.4 115.086 4.696 114.862 4.184C114.67 3.64 114.398 3.224 114.046 2.936C113.694 2.648 113.262 2.472 112.75 2.408C112.238 2.312 111.694 2.264 111.118 2.264C110.734 2.264 110.366 2.488 110.014 2.936C109.662 3.384 109.31 3.88 108.958 4.424C108.606 4.968 108.27 5.464 107.95 5.912C107.598 6.36 107.246 6.584 106.894 6.584L106.702 3.272C107.31 2.92 108.094 2.6 109.054 2.312C110.014 1.992 110.91 1.832 111.742 1.832C112.51 1.832 113.31 1.912 114.142 2.072C115.006 2.232 115.806 2.52 116.542 2.936C117.278 3.352 117.886 3.928 118.366 4.664C118.846 5.4 119.086 6.328 119.086 7.448V30.536ZM126.552 9.128C127.48 8.776 128.104 8.376 128.424 7.928C128.776 7.48 129.128 6.888 129.48 6.152C129.864 6.888 130.248 7.464 130.632 7.88C131.048 8.264 131.624 8.664 132.36 9.08C131.656 9.528 131.112 9.96 130.728 10.376C130.344 10.76 129.928 11.304 129.48 12.008C129.064 11.24 128.648 10.664 128.232 10.28C127.848 9.864 127.288 9.48 126.552 9.128ZM124.776 34.568C125.128 34.568 125.512 34.536 125.928 34.472C126.344 34.376 126.728 34.2 127.08 33.944C127.432 33.656 127.72 33.24 127.944 32.696C128.168 32.152 128.28 31.416 128.28 30.488V19.496C128.28 18.568 128.152 17.832 127.896 17.288C127.672 16.744 127.384 16.344 127.032 16.088C126.68 15.8 126.296 15.624 125.88 15.56C125.496 15.464 125.128 15.416 124.776 15.416V14.984H129.672C130.216 14.984 130.76 15.368 131.304 16.136C131.88 16.904 132.168 18.152 132.168 19.88V30.488C132.168 31.416 132.28 32.152 132.504 32.696C132.728 33.24 133.016 33.656 133.368 33.944C133.72 34.2 134.104 34.376 134.52 34.472C134.936 34.536 135.32 34.568 135.672 34.568V35H124.776V34.568ZM137.901 15.464V14.984H142.797C143.245 14.984 143.709 15.272 144.189 15.848C144.701 16.424 145.037 17.352 145.197 18.632C145.933 17.384 146.829 16.408 147.885 15.704C148.973 15 150.253 14.648 151.725 14.648C153.037 14.648 154.157 14.808 155.085 15.128C156.013 15.448 156.765 15.928 157.341 16.568C157.949 17.176 158.413 17.96 158.733 18.92C159.085 19.848 159.341 20.92 159.501 22.136L160.605 30.536C160.733 31.464 160.909 32.2 161.133 32.744C161.389 33.256 161.677 33.656 161.997 33.944C162.317 34.2 162.653 34.376 163.005 34.472C163.389 34.536 163.757 34.568 164.109 34.568V35H153.213V34.568C153.565 34.568 153.965 34.536 154.413 34.472C154.893 34.376 155.309 34.2 155.661 33.944C156.045 33.656 156.349 33.24 156.573 32.696C156.797 32.152 156.845 31.432 156.717 30.536L155.613 22.136C155.485 21.048 155.325 20.104 155.133 19.304C154.973 18.504 154.717 17.848 154.365 17.336C154.045 16.792 153.613 16.392 153.069 16.136C152.525 15.88 151.789 15.752 150.861 15.752C149.485 15.752 148.317 16.152 147.357 16.952C146.429 17.72 145.741 18.888 145.293 20.456V30.536C145.293 31.464 145.405 32.2 145.629 32.744C145.853 33.256 146.141 33.656 146.493 33.944C146.845 34.2 147.229 34.376 147.645 34.472C148.061 34.536 148.445 34.568 148.797 34.568V35H137.901V34.568C138.253 34.568 138.637 34.536 139.053 34.472C139.469 34.376 139.853 34.2 140.205 33.944C140.557 33.656 140.845 33.256 141.069 32.744C141.293 32.2 141.405 31.464 141.405 30.536V19.496C141.405 18.568 141.277 17.832 141.021 17.288C140.797 16.744 140.509 16.344 140.157 16.088C139.805 15.8 139.421 15.624 139.005 15.56C138.621 15.496 138.253 15.464 137.901 15.464ZM176.928 34.856C177.568 34.856 178.368 34.776 179.328 34.616C180.32 34.456 181.328 34.152 182.352 33.704C183.408 33.224 184.432 32.552 185.424 31.688C186.416 30.824 187.264 29.704 187.968 28.328H188.496C187.504 30.088 186.4 31.496 185.184 32.552C184 33.576 182.816 34.344 181.632 34.856C180.448 35.368 179.328 35.688 178.272 35.816C177.216 35.976 176.352 36.056 175.68 36.056C173.76 36.056 172.128 35.768 170.784 35.192C169.472 34.616 168.416 33.832 167.616 32.84C166.848 31.848 166.304 30.712 165.984 29.432C165.696 28.152 165.632 26.824 165.792 25.448C165.984 23.752 166.432 22.264 167.136 20.984C167.872 19.672 168.784 18.568 169.872 17.672C170.96 16.776 172.176 16.088 173.52 15.608C174.896 15.128 176.304 14.872 177.744 14.84C179.248 14.808 180.48 15.032 181.44 15.512C182.432 15.992 183.184 16.6 183.696 17.336C184.24 18.072 184.56 18.888 184.656 19.784C184.784 20.68 184.752 21.528 184.56 22.328C184.432 22.744 184.208 23.048 183.888 23.24C183.568 23.432 183.232 23.528 182.88 23.528L170.064 23.768C170 24.024 169.952 24.28 169.92 24.536C169.888 24.792 169.856 25.048 169.824 25.304C169.696 26.616 169.728 27.864 169.92 29.048C170.112 30.2 170.496 31.208 171.072 32.072C171.648 32.936 172.416 33.624 173.376 34.136C174.368 34.616 175.552 34.856 176.928 34.856ZM170.256 23L179.808 22.904C180.544 22.872 181.04 22.68 181.296 22.328C181.584 21.976 181.696 21.528 181.632 20.984C181.6 20.568 181.52 20.056 181.392 19.448C181.296 18.808 181.104 18.2 180.816 17.624C180.528 17.016 180.128 16.52 179.616 16.136C179.104 15.72 178.432 15.512 177.6 15.512C175.968 15.544 174.48 16.248 173.136 17.624C171.792 19 170.832 20.792 170.256 23Z" fill="black"/>
</svg>
