<svg width="191" height="38" viewBox="0 0 191 38" fill="none" xmlns="http://www.w3.org/2000/svg">
<mask id="path-1-outside-1_164_1120" maskUnits="userSpaceOnUse" x="0.160004" y="0.0560303" width="191" height="38" fill="black">
<rect fill="white" x="0.160004" y="0.0560303" width="191" height="38"/>
<path d="M4.712 5.52003C4.712 4.59203 4.6 3.87203 4.376 3.36003C4.152 2.81603 3.864 2.41603 3.512 2.16003C3.16 1.87203 2.776 1.69603 2.36 1.63203C1.976 1.53603 1.608 1.48803 1.256 1.48803V1.05603H15.08C16.456 1.05603 17.768 1.16803 19.016 1.39203C20.264 1.61603 21.352 2.06403 22.28 2.73603C23.24 3.37603 23.992 4.30403 24.536 5.52003C25.112 6.73603 25.4 8.35203 25.4 10.368C25.4 14.304 24.312 17.2 22.136 19.056C19.96 20.912 16.888 21.808 12.92 21.744L8.648 21.696V31.488C8.648 32.416 8.76 33.152 8.984 33.696C9.208 34.24 9.496 34.656 9.848 34.944C10.2 35.2 10.584 35.36 11 35.424C11.416 35.488 11.8 35.52 12.152 35.52V36H1.16V35.52C1.512 35.52 1.896 35.488 2.312 35.424C2.728 35.36 3.112 35.2 3.464 34.944C3.816 34.656 4.104 34.24 4.328 33.696C4.584 33.152 4.712 32.416 4.712 31.488V5.52003ZM8.648 19.056L13.4 20.976C14.04 21.136 14.584 21.216 15.032 21.216C16.728 21.216 18.168 20.368 19.352 18.672C20.536 16.944 21.128 14.192 21.128 10.416C21.128 8.24003 20.92 6.57603 20.504 5.42403C20.12 4.24003 19.576 3.39203 18.872 2.88003C18.168 2.33603 17.336 2.01603 16.376 1.92003C15.448 1.82403 14.456 1.77603 13.4 1.77603H11.816C11.464 1.77603 11.096 1.80803 10.712 1.87203C10.36 1.90403 10.024 2.04803 9.704 2.30403C9.384 2.52803 9.128 2.89603 8.936 3.40803C8.744 3.92003 8.648 4.64003 8.648 5.56803V19.056Z"/>
<path d="M34.1 36.768C32.916 36.768 31.812 36.608 30.788 36.288C29.796 35.968 28.948 35.52 28.244 34.944C27.54 34.368 26.996 33.68 26.612 32.88C26.26 32.08 26.1 31.216 26.132 30.288C26.196 29.04 26.596 28 27.332 27.168C28.068 26.304 28.948 25.6 29.972 25.056C30.996 24.512 32.084 24.112 33.236 23.856C34.42 23.568 35.492 23.392 36.452 23.328C38.18 23.2 39.396 22.784 40.1 22.08C40.836 21.376 41.236 20.464 41.3 19.344C41.396 18 41.124 17.04 40.484 16.464C39.844 15.856 39.012 15.552 37.988 15.552C36.452 15.552 34.804 16.064 33.044 17.088C32.82 17.216 32.516 17.552 32.132 18.096C31.748 18.64 31.348 19.216 30.932 19.824C30.516 20.4 30.116 20.928 29.732 21.408C29.348 21.856 29.012 22.08 28.724 22.08L28.964 17.952C29.316 17.792 29.908 17.488 30.74 17.04C31.572 16.56 32.372 16.208 33.14 15.984C33.972 15.728 34.98 15.488 36.164 15.264C37.348 15.008 38.516 14.88 39.668 14.88C40.34 14.88 40.98 14.944 41.588 15.072C42.196 15.2 42.724 15.424 43.172 15.744C43.62 16.032 43.972 16.448 44.228 16.992C44.484 17.504 44.58 18.144 44.516 18.912C44.484 19.68 44.228 20.352 43.748 20.928C43.3 21.472 42.708 21.952 41.972 22.368C41.268 22.752 40.452 23.072 39.524 23.328C38.596 23.584 37.62 23.808 36.596 24C35.892 24.128 35.156 24.336 34.388 24.624C33.652 24.912 32.964 25.296 32.324 25.776C31.716 26.256 31.188 26.848 30.74 27.552C30.292 28.224 30.02 29.04 29.924 30C29.86 30.8 29.924 31.568 30.116 32.304C30.308 33.008 30.596 33.648 30.98 34.224C31.364 34.768 31.828 35.2 32.372 35.52C32.948 35.84 33.54 36 34.148 36C35.204 36 36.116 35.808 36.884 35.424C37.684 35.008 38.34 34.512 38.852 33.936C39.396 33.328 39.812 32.704 40.1 32.064C40.42 31.392 40.66 30.8 40.82 30.288L40.34 29.28C40.212 28.864 40.196 28.576 40.292 28.416C40.42 28.224 40.596 28.048 40.82 27.888C41.076 27.696 41.364 27.456 41.684 27.168C42.036 26.848 42.404 26.352 42.788 25.68L45.188 31.344C45.924 33.104 46.66 34.256 47.396 34.8C48.132 35.312 49.296 31.5 50 31.5V33.75L49.5 35.5L45.5 36C45.052 36 44.5 35.824 43.892 35.472C43.316 35.088 42.9 34.656 42.644 34.176L41.156 30.96C40.932 31.568 40.628 32.208 40.244 32.88C39.892 33.552 39.428 34.176 38.852 34.752C38.308 35.328 37.636 35.808 36.836 36.192C36.068 36.576 35.156 36.768 34.1 36.768Z"/>
<path d="M50.5996 31.488C51.0156 31.488 51.3676 31.728 51.6556 32.208C51.9436 32.656 52.3116 33.168 52.7596 33.744C53.2396 34.32 53.8636 34.848 54.6316 35.328C55.3996 35.776 56.4556 36 57.7996 36C59.3676 36 60.6476 35.664 61.6396 34.992C62.6636 34.288 63.1756 33.392 63.1756 32.304C63.1756 31.408 62.8556 30.656 62.2156 30.048C61.5756 29.44 60.7596 28.896 59.7676 28.416C58.8076 27.936 57.7676 27.472 56.6476 27.024C55.5276 26.544 54.4716 26.016 53.4796 25.44C52.5196 24.864 51.7196 24.192 51.0796 23.424C50.4396 22.656 50.1196 21.712 50.1196 20.592C50.1196 19.664 50.3436 18.896 50.7916 18.288C51.2396 17.648 51.8156 17.136 52.5196 16.752C53.2236 16.368 54.0236 16.096 54.9196 15.936C55.8156 15.744 56.7116 15.648 57.6076 15.648C58.1196 15.648 58.6956 15.68 59.3356 15.744C60.0076 15.776 60.6476 15.824 61.2556 15.888C61.8956 15.952 62.4716 16.032 62.9836 16.128C63.5276 16.224 63.9276 16.304 64.1836 16.368L64.0396 20.496C63.5916 20.496 63.1916 20.272 62.8396 19.824C62.5196 19.344 62.1356 18.832 61.6876 18.288C61.2716 17.744 60.7596 17.248 60.1516 16.8C59.5436 16.32 58.7436 16.08 57.7516 16.08C57.4636 16.08 57.0956 16.112 56.6476 16.176C56.1996 16.24 55.7676 16.384 55.3516 16.608C54.9356 16.8 54.5676 17.088 54.2476 17.472C53.9596 17.856 53.8156 18.352 53.8156 18.96C53.8156 19.856 54.1356 20.608 54.7756 21.216C55.4156 21.824 56.2156 22.368 57.1756 22.848C58.1356 23.296 59.1756 23.744 60.2956 24.192C61.4476 24.608 62.5036 25.088 63.4636 25.632C64.4236 26.144 65.2236 26.768 65.8636 27.504C66.5036 28.208 66.8236 29.104 66.8236 30.192C66.8236 31.056 66.5836 31.888 66.1036 32.688C65.6556 33.488 64.9996 34.192 64.1356 34.8C63.3036 35.376 62.2796 35.84 61.0636 36.192C59.8796 36.544 58.5676 36.72 57.1276 36.72C55.5916 36.72 54.2476 36.576 53.0956 36.288C51.9756 36 51.0956 35.776 50.4556 35.616L50.5996 31.488Z"/>
<path d="M68.7166 26.16C68.8446 24.752 69.2126 23.424 69.8206 22.176C70.4606 20.928 71.2926 19.84 72.3166 18.912C73.3406 17.952 74.5246 17.2 75.8686 16.656C77.2126 16.112 78.6686 15.84 80.2366 15.84C81.2926 15.84 82.2206 15.968 83.0206 16.224C83.8206 16.448 84.4926 16.72 85.0366 17.04C85.6126 17.328 86.0606 17.632 86.3806 17.952C86.7006 18.24 86.9086 18.448 87.0046 18.576L86.2366 22.752C85.7886 22.752 85.4846 22.432 85.3246 21.792C85.1646 21.12 84.9246 20.4 84.6046 19.632C84.3166 18.832 83.8366 18.112 83.1646 17.472C82.5246 16.8 81.5006 16.464 80.0926 16.464C79.1326 16.464 78.2526 16.72 77.4526 17.232C76.6526 17.744 75.9326 18.432 75.2926 19.296C74.6846 20.128 74.1726 21.12 73.7566 22.272C73.3726 23.392 73.1326 24.576 73.0366 25.824C72.9086 27.36 73.0206 28.736 73.3726 29.952C73.7246 31.136 74.2686 32.144 75.0046 32.976C75.7726 33.776 76.7006 34.4 77.7886 34.848C78.9086 35.264 80.1246 35.456 81.4366 35.424C82.5566 35.392 83.5326 35.2 84.3646 34.848C85.2286 34.496 85.9486 34.08 86.5246 33.6C87.1006 33.088 87.9806 32.3013 88.3006 31.7893C88.6206 31.2453 90.8247 28.1319 90.9527 27.7799L89.5 30.5C90 30.5 88.7166 31.68 88.3006 32.352C87.8846 33.024 87.2926 33.696 86.5246 34.368C85.7886 35.008 84.8446 35.552 83.6926 36C82.5406 36.48 81.1646 36.736 79.5646 36.768C77.8046 36.8 76.2206 36.56 74.8126 36.048C73.4046 35.536 72.2206 34.816 71.2606 33.888C70.3006 32.928 69.5966 31.792 69.1486 30.48C68.7326 29.168 68.5886 27.728 68.7166 26.16Z"/>
<path d="M98.1781 36.768C96.9941 36.768 95.8901 36.608 94.8661 36.288C93.8741 35.968 93.0261 35.52 92.3221 34.944C91.6181 34.368 91.0741 33.68 90.6901 32.88C90.3381 32.08 90.1781 31.216 90.2101 30.288C90.2741 29.04 90.6741 28 91.4101 27.168C92.1461 26.304 93.0261 25.6 94.0501 25.056C95.0741 24.512 96.1621 24.112 97.3141 23.856C98.4981 23.568 99.5701 23.392 100.53 23.328C102.258 23.2 103.474 22.784 104.178 22.08C104.914 21.376 105.314 20.464 105.378 19.344C105.474 18 105.202 17.04 104.562 16.464C103.922 15.856 103.09 15.552 102.066 15.552C100.53 15.552 98.8821 16.064 97.1221 17.088C96.8981 17.216 96.5941 17.552 96.2101 18.096C95.8261 18.64 95.4261 19.216 95.0101 19.824C94.5941 20.4 94.1941 20.928 93.8101 21.408C93.4261 21.856 93.0901 22.08 92.8021 22.08L93.0421 17.952C93.3941 17.792 93.9861 17.488 94.8181 17.04C95.6501 16.56 96.4501 16.208 97.2181 15.984C98.0501 15.728 99.0581 15.488 100.242 15.264C101.426 15.008 102.594 14.88 103.746 14.88C104.418 14.88 105.058 14.944 105.666 15.072C106.274 15.2 106.802 15.424 107.25 15.744C107.698 16.032 108.05 16.448 108.306 16.992C108.562 17.504 108.658 18.144 108.594 18.912C108.562 19.68 108.306 20.352 107.826 20.928C107.378 21.472 106.786 21.952 106.05 22.368C105.346 22.752 104.53 23.072 103.602 23.328C102.674 23.584 101.698 23.808 100.674 24C99.9701 24.128 99.2341 24.336 98.4661 24.624C97.7301 24.912 97.0421 25.296 96.4021 25.776C95.7941 26.256 95.2661 26.848 94.8181 27.552C94.3701 28.224 94.0981 29.04 94.0021 30C93.9381 30.8 94.0021 31.568 94.1941 32.304C94.3861 33.008 94.6741 33.648 95.0581 34.224C95.4421 34.768 95.9061 35.2 96.4501 35.52C97.0261 35.84 97.6181 36 98.2261 36C99.2821 36 100.194 35.808 100.962 35.424C101.762 35.008 102.418 34.512 102.93 33.936C103.474 33.328 103.89 32.704 104.178 32.064C104.498 31.392 104.738 30.8 104.898 30.288L104.418 29.28C104.29 28.864 104.274 28.576 104.37 28.416C104.498 28.224 104.674 28.048 104.898 27.888C105.154 27.696 105.442 27.456 105.762 27.168C106.114 26.848 106.482 26.352 106.866 25.68L109.266 31.344C110.002 33.104 110.738 34.256 111.474 34.8C112.21 35.312 112.93 35.568 113.634 35.568L113.73 36H109.554C109.106 36 108.578 35.824 107.97 35.472C107.394 35.088 106.978 34.656 106.722 34.176L105.234 30.96C105.01 31.568 104.706 32.208 104.322 32.88C103.97 33.552 103.506 34.176 102.93 34.752C102.386 35.328 101.714 35.808 100.914 36.192C100.146 36.576 99.2341 36.768 98.1781 36.768Z"/>
<path d="M120.086 31.536C120.086 32.464 120.198 33.2 120.422 33.744C120.646 34.256 120.934 34.656 121.286 34.944C121.638 35.2 122.022 35.376 122.438 35.472C122.854 35.536 123.238 35.568 123.59 35.568V36H112.694V35.568C113.046 35.568 113.43 35.536 113.846 35.472C114.262 35.376 114.646 35.2 114.998 34.944C115.35 34.656 115.638 34.24 115.862 33.696C116.086 33.152 116.198 32.416 116.198 31.488V7.29603C116.198 6.40003 116.086 5.69603 115.862 5.18403C115.67 4.64003 115.398 4.22403 115.046 3.93603C114.694 3.64803 114.262 3.47203 113.75 3.40803C113.238 3.31203 112.694 3.26403 112.118 3.26403C111.734 3.26403 111.366 3.48803 111.014 3.93603C110.662 4.38403 110.31 4.88003 109.958 5.42403C109.606 5.96803 109.27 6.46403 108.95 6.91203C108.598 7.36003 107.878 4.95423 107.702 4.33488V4.27203C108.31 3.92003 109.094 3.60003 110.054 3.31203C111.014 2.99203 111.91 2.83203 112.742 2.83203C113.51 2.83203 114.31 2.91203 115.142 3.07203C116.006 3.23203 116.806 3.52003 117.542 3.93603C118.278 4.35203 118.886 4.92803 119.366 5.66403C119.846 6.40003 120.086 7.32803 120.086 8.44803V31.536Z"/>
<path d="M127.552 10.128C128.48 9.77603 129.104 9.37603 129.424 8.92803C129.776 8.48003 130.128 7.88803 130.48 7.15203C130.864 7.88803 131.248 8.46403 131.632 8.88003C132.048 9.26403 132.624 9.66403 133.36 10.08C132.656 10.528 132.112 10.96 131.728 11.376C131.344 11.76 130.928 12.304 130.48 13.008C130.064 12.24 129.648 11.664 129.232 11.28C128.848 10.864 128.288 10.48 127.552 10.128ZM125.776 35.568C126.128 35.568 126.512 35.536 126.928 35.472C127.344 35.376 127.728 35.2 128.08 34.944C128.432 34.656 128.72 34.24 128.944 33.696C129.168 33.152 129.28 32.416 129.28 31.488V20.496C129.28 19.568 129.152 18.832 128.896 18.288C128.672 17.744 128.384 17.344 128.032 17.088C127.68 16.8 127.296 16.624 126.88 16.56C126.496 16.464 126.128 16.416 125.776 16.416V15.984H130.672C131.216 15.984 131.76 16.368 132.304 17.136C132.88 17.904 133.168 19.152 133.168 20.88V31.488C133.168 32.416 133.28 33.152 133.504 33.696C133.728 34.24 134.016 34.656 134.368 34.944C134.72 35.2 135.104 35.376 135.52 35.472C135.936 35.536 136.32 35.568 136.672 35.568V36H125.776V35.568Z"/>
<path d="M138.901 16.464V15.984H143.797C144.245 15.984 144.709 16.272 145.189 16.848C145.701 17.424 146.037 18.352 146.197 19.632C146.933 18.384 147.829 17.408 148.885 16.704C149.973 16 151.253 15.648 152.725 15.648C154.037 15.648 155.157 15.808 156.085 16.128C157.013 16.448 157.765 16.928 158.341 17.568C158.949 18.176 159.413 18.96 159.733 19.92C160.085 20.848 160.341 21.92 160.501 23.136L161.605 31.536C161.733 32.464 161.909 33.2 162.133 33.744C162.389 34.256 162.677 34.656 162.997 34.944C163.317 35.2 163.653 35.376 164.005 35.472C164.389 35.536 164.757 35.568 165.109 35.568V36H154.213V35.568C154.565 35.568 154.965 35.536 155.413 35.472C155.893 35.376 156.309 35.2 156.661 34.944C157.045 34.656 157.349 34.24 157.573 33.696C157.797 33.152 157.845 32.432 157.717 31.536L156.613 23.136C156.485 22.048 156.325 21.104 156.133 20.304C155.973 19.504 155.717 18.848 155.365 18.336C155.045 17.792 154.613 17.392 154.069 17.136C153.525 16.88 152.789 16.752 151.861 16.752C150.485 16.752 149.317 17.152 148.357 17.952C147.429 18.72 146.741 19.888 146.293 21.456V31.536C146.293 32.464 146.405 33.2 146.629 33.744C146.853 34.256 147.141 34.656 147.493 34.944C147.845 35.2 148.229 35.376 148.645 35.472C149.061 35.536 149.445 35.568 149.797 35.568V36H138.901V35.568C139.253 35.568 139.637 35.536 140.053 35.472C140.469 35.376 140.853 35.2 141.205 34.944C141.557 34.656 141.845 34.256 142.069 33.744C142.293 33.2 142.405 32.464 142.405 31.536V20.496C142.405 19.568 142.277 18.832 142.021 18.288C141.797 17.744 141.509 17.344 141.157 17.088C140.805 16.8 140.421 16.624 140.005 16.56C139.621 16.496 139.253 16.464 138.901 16.464Z"/>
<path d="M177.928 35.856C178.568 35.856 179.367 35.776 180.327 35.616C181.319 35.456 182.328 35.152 183.352 34.704C184.408 34.224 185.432 33.552 186.424 32.688C187.416 31.824 188.263 30.704 188.967 29.328H189.495C188.503 31.088 187.4 32.496 186.184 33.552C185 34.576 183.816 35.344 182.632 35.856C181.448 36.368 180.327 36.688 179.271 36.816C178.215 36.976 177.352 37.056 176.68 37.056C174.76 37.056 173.128 36.768 171.784 36.192C170.472 35.616 169.416 34.832 168.616 33.84C167.848 32.848 167.304 31.712 166.984 30.432C166.696 29.152 166.632 27.824 166.792 26.448C166.984 24.752 167.431 23.264 168.135 21.984C168.871 20.672 169.784 19.568 170.872 18.672C171.96 17.776 173.176 17.088 174.52 16.608C175.896 16.128 177.303 15.872 178.743 15.84C180.247 15.808 181.479 16.032 182.439 16.512C183.431 16.992 184.184 17.6 184.696 18.336C185.24 19.072 185.56 19.888 185.656 20.784C185.784 21.68 185.752 22.528 185.56 23.328C185.432 23.744 185.207 24.048 184.887 24.24C184.567 24.432 184.232 24.528 183.88 24.528L171.064 24.768C171 25.024 170.952 25.28 170.92 25.536C170.888 25.792 170.856 26.048 170.824 26.304C170.696 27.616 170.728 28.864 170.92 30.048C171.112 31.2 171.496 32.208 172.072 33.072C172.648 33.936 173.416 34.624 174.376 35.136C175.368 35.616 176.552 35.856 177.928 35.856ZM171.256 24L180.808 23.904C181.544 23.872 182.04 23.68 182.296 23.328C182.584 22.976 182.696 22.528 182.632 21.984C182.6 21.568 182.52 21.056 182.392 20.448C182.296 19.808 182.104 19.2 181.816 18.624C181.528 18.016 181.128 17.52 180.616 17.136C180.104 16.72 179.432 16.512 178.6 16.512C176.968 16.544 175.479 17.248 174.135 18.624C172.791 20 171.832 21.792 171.256 24Z"/>
</mask>
<path d="M4.712 5.52003C4.712 4.59203 4.6 3.87203 4.376 3.36003C4.152 2.81603 3.864 2.41603 3.512 2.16003C3.16 1.87203 2.776 1.69603 2.36 1.63203C1.976 1.53603 1.608 1.48803 1.256 1.48803V1.05603H15.08C16.456 1.05603 17.768 1.16803 19.016 1.39203C20.264 1.61603 21.352 2.06403 22.28 2.73603C23.24 3.37603 23.992 4.30403 24.536 5.52003C25.112 6.73603 25.4 8.35203 25.4 10.368C25.4 14.304 24.312 17.2 22.136 19.056C19.96 20.912 16.888 21.808 12.92 21.744L8.648 21.696V31.488C8.648 32.416 8.76 33.152 8.984 33.696C9.208 34.24 9.496 34.656 9.848 34.944C10.2 35.2 10.584 35.36 11 35.424C11.416 35.488 11.8 35.52 12.152 35.52V36H1.16V35.52C1.512 35.52 1.896 35.488 2.312 35.424C2.728 35.36 3.112 35.2 3.464 34.944C3.816 34.656 4.104 34.24 4.328 33.696C4.584 33.152 4.712 32.416 4.712 31.488V5.52003ZM8.648 19.056L13.4 20.976C14.04 21.136 14.584 21.216 15.032 21.216C16.728 21.216 18.168 20.368 19.352 18.672C20.536 16.944 21.128 14.192 21.128 10.416C21.128 8.24003 20.92 6.57603 20.504 5.42403C20.12 4.24003 19.576 3.39203 18.872 2.88003C18.168 2.33603 17.336 2.01603 16.376 1.92003C15.448 1.82403 14.456 1.77603 13.4 1.77603H11.816C11.464 1.77603 11.096 1.80803 10.712 1.87203C10.36 1.90403 10.024 2.04803 9.704 2.30403C9.384 2.52803 9.128 2.89603 8.936 3.40803C8.744 3.92003 8.648 4.64003 8.648 5.56803V19.056Z" fill="black"/>
<path d="M34.1 36.768C32.916 36.768 31.812 36.608 30.788 36.288C29.796 35.968 28.948 35.52 28.244 34.944C27.54 34.368 26.996 33.68 26.612 32.88C26.26 32.08 26.1 31.216 26.132 30.288C26.196 29.04 26.596 28 27.332 27.168C28.068 26.304 28.948 25.6 29.972 25.056C30.996 24.512 32.084 24.112 33.236 23.856C34.42 23.568 35.492 23.392 36.452 23.328C38.18 23.2 39.396 22.784 40.1 22.08C40.836 21.376 41.236 20.464 41.3 19.344C41.396 18 41.124 17.04 40.484 16.464C39.844 15.856 39.012 15.552 37.988 15.552C36.452 15.552 34.804 16.064 33.044 17.088C32.82 17.216 32.516 17.552 32.132 18.096C31.748 18.64 31.348 19.216 30.932 19.824C30.516 20.4 30.116 20.928 29.732 21.408C29.348 21.856 29.012 22.08 28.724 22.08L28.964 17.952C29.316 17.792 29.908 17.488 30.74 17.04C31.572 16.56 32.372 16.208 33.14 15.984C33.972 15.728 34.98 15.488 36.164 15.264C37.348 15.008 38.516 14.88 39.668 14.88C40.34 14.88 40.98 14.944 41.588 15.072C42.196 15.2 42.724 15.424 43.172 15.744C43.62 16.032 43.972 16.448 44.228 16.992C44.484 17.504 44.58 18.144 44.516 18.912C44.484 19.68 44.228 20.352 43.748 20.928C43.3 21.472 42.708 21.952 41.972 22.368C41.268 22.752 40.452 23.072 39.524 23.328C38.596 23.584 37.62 23.808 36.596 24C35.892 24.128 35.156 24.336 34.388 24.624C33.652 24.912 32.964 25.296 32.324 25.776C31.716 26.256 31.188 26.848 30.74 27.552C30.292 28.224 30.02 29.04 29.924 30C29.86 30.8 29.924 31.568 30.116 32.304C30.308 33.008 30.596 33.648 30.98 34.224C31.364 34.768 31.828 35.2 32.372 35.52C32.948 35.84 33.54 36 34.148 36C35.204 36 36.116 35.808 36.884 35.424C37.684 35.008 38.34 34.512 38.852 33.936C39.396 33.328 39.812 32.704 40.1 32.064C40.42 31.392 40.66 30.8 40.82 30.288L40.34 29.28C40.212 28.864 40.196 28.576 40.292 28.416C40.42 28.224 40.596 28.048 40.82 27.888C41.076 27.696 41.364 27.456 41.684 27.168C42.036 26.848 42.404 26.352 42.788 25.68L45.188 31.344C45.924 33.104 46.66 34.256 47.396 34.8C48.132 35.312 49.296 31.5 50 31.5V33.75L49.5 35.5L45.5 36C45.052 36 44.5 35.824 43.892 35.472C43.316 35.088 42.9 34.656 42.644 34.176L41.156 30.96C40.932 31.568 40.628 32.208 40.244 32.88C39.892 33.552 39.428 34.176 38.852 34.752C38.308 35.328 37.636 35.808 36.836 36.192C36.068 36.576 35.156 36.768 34.1 36.768Z" fill="black"/>
<path d="M50.5996 31.488C51.0156 31.488 51.3676 31.728 51.6556 32.208C51.9436 32.656 52.3116 33.168 52.7596 33.744C53.2396 34.32 53.8636 34.848 54.6316 35.328C55.3996 35.776 56.4556 36 57.7996 36C59.3676 36 60.6476 35.664 61.6396 34.992C62.6636 34.288 63.1756 33.392 63.1756 32.304C63.1756 31.408 62.8556 30.656 62.2156 30.048C61.5756 29.44 60.7596 28.896 59.7676 28.416C58.8076 27.936 57.7676 27.472 56.6476 27.024C55.5276 26.544 54.4716 26.016 53.4796 25.44C52.5196 24.864 51.7196 24.192 51.0796 23.424C50.4396 22.656 50.1196 21.712 50.1196 20.592C50.1196 19.664 50.3436 18.896 50.7916 18.288C51.2396 17.648 51.8156 17.136 52.5196 16.752C53.2236 16.368 54.0236 16.096 54.9196 15.936C55.8156 15.744 56.7116 15.648 57.6076 15.648C58.1196 15.648 58.6956 15.68 59.3356 15.744C60.0076 15.776 60.6476 15.824 61.2556 15.888C61.8956 15.952 62.4716 16.032 62.9836 16.128C63.5276 16.224 63.9276 16.304 64.1836 16.368L64.0396 20.496C63.5916 20.496 63.1916 20.272 62.8396 19.824C62.5196 19.344 62.1356 18.832 61.6876 18.288C61.2716 17.744 60.7596 17.248 60.1516 16.8C59.5436 16.32 58.7436 16.08 57.7516 16.08C57.4636 16.08 57.0956 16.112 56.6476 16.176C56.1996 16.24 55.7676 16.384 55.3516 16.608C54.9356 16.8 54.5676 17.088 54.2476 17.472C53.9596 17.856 53.8156 18.352 53.8156 18.96C53.8156 19.856 54.1356 20.608 54.7756 21.216C55.4156 21.824 56.2156 22.368 57.1756 22.848C58.1356 23.296 59.1756 23.744 60.2956 24.192C61.4476 24.608 62.5036 25.088 63.4636 25.632C64.4236 26.144 65.2236 26.768 65.8636 27.504C66.5036 28.208 66.8236 29.104 66.8236 30.192C66.8236 31.056 66.5836 31.888 66.1036 32.688C65.6556 33.488 64.9996 34.192 64.1356 34.8C63.3036 35.376 62.2796 35.84 61.0636 36.192C59.8796 36.544 58.5676 36.72 57.1276 36.72C55.5916 36.72 54.2476 36.576 53.0956 36.288C51.9756 36 51.0956 35.776 50.4556 35.616L50.5996 31.488Z" fill="black"/>
<path d="M68.7166 26.16C68.8446 24.752 69.2126 23.424 69.8206 22.176C70.4606 20.928 71.2926 19.84 72.3166 18.912C73.3406 17.952 74.5246 17.2 75.8686 16.656C77.2126 16.112 78.6686 15.84 80.2366 15.84C81.2926 15.84 82.2206 15.968 83.0206 16.224C83.8206 16.448 84.4926 16.72 85.0366 17.04C85.6126 17.328 86.0606 17.632 86.3806 17.952C86.7006 18.24 86.9086 18.448 87.0046 18.576L86.2366 22.752C85.7886 22.752 85.4846 22.432 85.3246 21.792C85.1646 21.12 84.9246 20.4 84.6046 19.632C84.3166 18.832 83.8366 18.112 83.1646 17.472C82.5246 16.8 81.5006 16.464 80.0926 16.464C79.1326 16.464 78.2526 16.72 77.4526 17.232C76.6526 17.744 75.9326 18.432 75.2926 19.296C74.6846 20.128 74.1726 21.12 73.7566 22.272C73.3726 23.392 73.1326 24.576 73.0366 25.824C72.9086 27.36 73.0206 28.736 73.3726 29.952C73.7246 31.136 74.2686 32.144 75.0046 32.976C75.7726 33.776 76.7006 34.4 77.7886 34.848C78.9086 35.264 80.1246 35.456 81.4366 35.424C82.5566 35.392 83.5326 35.2 84.3646 34.848C85.2286 34.496 85.9486 34.08 86.5246 33.6C87.1006 33.088 87.9806 32.3013 88.3006 31.7893C88.6206 31.2453 90.8247 28.1319 90.9527 27.7799L89.5 30.5C90 30.5 88.7166 31.68 88.3006 32.352C87.8846 33.024 87.2926 33.696 86.5246 34.368C85.7886 35.008 84.8446 35.552 83.6926 36C82.5406 36.48 81.1646 36.736 79.5646 36.768C77.8046 36.8 76.2206 36.56 74.8126 36.048C73.4046 35.536 72.2206 34.816 71.2606 33.888C70.3006 32.928 69.5966 31.792 69.1486 30.48C68.7326 29.168 68.5886 27.728 68.7166 26.16Z" fill="black"/>
<path d="M98.1781 36.768C96.9941 36.768 95.8901 36.608 94.8661 36.288C93.8741 35.968 93.0261 35.52 92.3221 34.944C91.6181 34.368 91.0741 33.68 90.6901 32.88C90.3381 32.08 90.1781 31.216 90.2101 30.288C90.2741 29.04 90.6741 28 91.4101 27.168C92.1461 26.304 93.0261 25.6 94.0501 25.056C95.0741 24.512 96.1621 24.112 97.3141 23.856C98.4981 23.568 99.5701 23.392 100.53 23.328C102.258 23.2 103.474 22.784 104.178 22.08C104.914 21.376 105.314 20.464 105.378 19.344C105.474 18 105.202 17.04 104.562 16.464C103.922 15.856 103.09 15.552 102.066 15.552C100.53 15.552 98.8821 16.064 97.1221 17.088C96.8981 17.216 96.5941 17.552 96.2101 18.096C95.8261 18.64 95.4261 19.216 95.0101 19.824C94.5941 20.4 94.1941 20.928 93.8101 21.408C93.4261 21.856 93.0901 22.08 92.8021 22.08L93.0421 17.952C93.3941 17.792 93.9861 17.488 94.8181 17.04C95.6501 16.56 96.4501 16.208 97.2181 15.984C98.0501 15.728 99.0581 15.488 100.242 15.264C101.426 15.008 102.594 14.88 103.746 14.88C104.418 14.88 105.058 14.944 105.666 15.072C106.274 15.2 106.802 15.424 107.25 15.744C107.698 16.032 108.05 16.448 108.306 16.992C108.562 17.504 108.658 18.144 108.594 18.912C108.562 19.68 108.306 20.352 107.826 20.928C107.378 21.472 106.786 21.952 106.05 22.368C105.346 22.752 104.53 23.072 103.602 23.328C102.674 23.584 101.698 23.808 100.674 24C99.9701 24.128 99.2341 24.336 98.4661 24.624C97.7301 24.912 97.0421 25.296 96.4021 25.776C95.7941 26.256 95.2661 26.848 94.8181 27.552C94.3701 28.224 94.0981 29.04 94.0021 30C93.9381 30.8 94.0021 31.568 94.1941 32.304C94.3861 33.008 94.6741 33.648 95.0581 34.224C95.4421 34.768 95.9061 35.2 96.4501 35.52C97.0261 35.84 97.6181 36 98.2261 36C99.2821 36 100.194 35.808 100.962 35.424C101.762 35.008 102.418 34.512 102.93 33.936C103.474 33.328 103.89 32.704 104.178 32.064C104.498 31.392 104.738 30.8 104.898 30.288L104.418 29.28C104.29 28.864 104.274 28.576 104.37 28.416C104.498 28.224 104.674 28.048 104.898 27.888C105.154 27.696 105.442 27.456 105.762 27.168C106.114 26.848 106.482 26.352 106.866 25.68L109.266 31.344C110.002 33.104 110.738 34.256 111.474 34.8C112.21 35.312 112.93 35.568 113.634 35.568L113.73 36H109.554C109.106 36 108.578 35.824 107.97 35.472C107.394 35.088 106.978 34.656 106.722 34.176L105.234 30.96C105.01 31.568 104.706 32.208 104.322 32.88C103.97 33.552 103.506 34.176 102.93 34.752C102.386 35.328 101.714 35.808 100.914 36.192C100.146 36.576 99.2341 36.768 98.1781 36.768Z" fill="black"/>
<path d="M120.086 31.536C120.086 32.464 120.198 33.2 120.422 33.744C120.646 34.256 120.934 34.656 121.286 34.944C121.638 35.2 122.022 35.376 122.438 35.472C122.854 35.536 123.238 35.568 123.59 35.568V36H112.694V35.568C113.046 35.568 113.43 35.536 113.846 35.472C114.262 35.376 114.646 35.2 114.998 34.944C115.35 34.656 115.638 34.24 115.862 33.696C116.086 33.152 116.198 32.416 116.198 31.488V7.29603C116.198 6.40003 116.086 5.69603 115.862 5.18403C115.67 4.64003 115.398 4.22403 115.046 3.93603C114.694 3.64803 114.262 3.47203 113.75 3.40803C113.238 3.31203 112.694 3.26403 112.118 3.26403C111.734 3.26403 111.366 3.48803 111.014 3.93603C110.662 4.38403 110.31 4.88003 109.958 5.42403C109.606 5.96803 109.27 6.46403 108.95 6.91203C108.598 7.36003 107.878 4.95423 107.702 4.33488V4.27203C108.31 3.92003 109.094 3.60003 110.054 3.31203C111.014 2.99203 111.91 2.83203 112.742 2.83203C113.51 2.83203 114.31 2.91203 115.142 3.07203C116.006 3.23203 116.806 3.52003 117.542 3.93603C118.278 4.35203 118.886 4.92803 119.366 5.66403C119.846 6.40003 120.086 7.32803 120.086 8.44803V31.536Z" fill="black"/>
<path d="M127.552 10.128C128.48 9.77603 129.104 9.37603 129.424 8.92803C129.776 8.48003 130.128 7.88803 130.48 7.15203C130.864 7.88803 131.248 8.46403 131.632 8.88003C132.048 9.26403 132.624 9.66403 133.36 10.08C132.656 10.528 132.112 10.96 131.728 11.376C131.344 11.76 130.928 12.304 130.48 13.008C130.064 12.24 129.648 11.664 129.232 11.28C128.848 10.864 128.288 10.48 127.552 10.128ZM125.776 35.568C126.128 35.568 126.512 35.536 126.928 35.472C127.344 35.376 127.728 35.2 128.08 34.944C128.432 34.656 128.72 34.24 128.944 33.696C129.168 33.152 129.28 32.416 129.28 31.488V20.496C129.28 19.568 129.152 18.832 128.896 18.288C128.672 17.744 128.384 17.344 128.032 17.088C127.68 16.8 127.296 16.624 126.88 16.56C126.496 16.464 126.128 16.416 125.776 16.416V15.984H130.672C131.216 15.984 131.76 16.368 132.304 17.136C132.88 17.904 133.168 19.152 133.168 20.88V31.488C133.168 32.416 133.28 33.152 133.504 33.696C133.728 34.24 134.016 34.656 134.368 34.944C134.72 35.2 135.104 35.376 135.52 35.472C135.936 35.536 136.32 35.568 136.672 35.568V36H125.776V35.568Z" fill="black"/>
<path d="M138.901 16.464V15.984H143.797C144.245 15.984 144.709 16.272 145.189 16.848C145.701 17.424 146.037 18.352 146.197 19.632C146.933 18.384 147.829 17.408 148.885 16.704C149.973 16 151.253 15.648 152.725 15.648C154.037 15.648 155.157 15.808 156.085 16.128C157.013 16.448 157.765 16.928 158.341 17.568C158.949 18.176 159.413 18.96 159.733 19.92C160.085 20.848 160.341 21.92 160.501 23.136L161.605 31.536C161.733 32.464 161.909 33.2 162.133 33.744C162.389 34.256 162.677 34.656 162.997 34.944C163.317 35.2 163.653 35.376 164.005 35.472C164.389 35.536 164.757 35.568 165.109 35.568V36H154.213V35.568C154.565 35.568 154.965 35.536 155.413 35.472C155.893 35.376 156.309 35.2 156.661 34.944C157.045 34.656 157.349 34.24 157.573 33.696C157.797 33.152 157.845 32.432 157.717 31.536L156.613 23.136C156.485 22.048 156.325 21.104 156.133 20.304C155.973 19.504 155.717 18.848 155.365 18.336C155.045 17.792 154.613 17.392 154.069 17.136C153.525 16.88 152.789 16.752 151.861 16.752C150.485 16.752 149.317 17.152 148.357 17.952C147.429 18.72 146.741 19.888 146.293 21.456V31.536C146.293 32.464 146.405 33.2 146.629 33.744C146.853 34.256 147.141 34.656 147.493 34.944C147.845 35.2 148.229 35.376 148.645 35.472C149.061 35.536 149.445 35.568 149.797 35.568V36H138.901V35.568C139.253 35.568 139.637 35.536 140.053 35.472C140.469 35.376 140.853 35.2 141.205 34.944C141.557 34.656 141.845 34.256 142.069 33.744C142.293 33.2 142.405 32.464 142.405 31.536V20.496C142.405 19.568 142.277 18.832 142.021 18.288C141.797 17.744 141.509 17.344 141.157 17.088C140.805 16.8 140.421 16.624 140.005 16.56C139.621 16.496 139.253 16.464 138.901 16.464Z" fill="black"/>
<path d="M177.928 35.856C178.568 35.856 179.367 35.776 180.327 35.616C181.319 35.456 182.328 35.152 183.352 34.704C184.408 34.224 185.432 33.552 186.424 32.688C187.416 31.824 188.263 30.704 188.967 29.328H189.495C188.503 31.088 187.4 32.496 186.184 33.552C185 34.576 183.816 35.344 182.632 35.856C181.448 36.368 180.327 36.688 179.271 36.816C178.215 36.976 177.352 37.056 176.68 37.056C174.76 37.056 173.128 36.768 171.784 36.192C170.472 35.616 169.416 34.832 168.616 33.84C167.848 32.848 167.304 31.712 166.984 30.432C166.696 29.152 166.632 27.824 166.792 26.448C166.984 24.752 167.431 23.264 168.135 21.984C168.871 20.672 169.784 19.568 170.872 18.672C171.96 17.776 173.176 17.088 174.52 16.608C175.896 16.128 177.303 15.872 178.743 15.84C180.247 15.808 181.479 16.032 182.439 16.512C183.431 16.992 184.184 17.6 184.696 18.336C185.24 19.072 185.56 19.888 185.656 20.784C185.784 21.68 185.752 22.528 185.56 23.328C185.432 23.744 185.207 24.048 184.887 24.24C184.567 24.432 184.232 24.528 183.88 24.528L171.064 24.768C171 25.024 170.952 25.28 170.92 25.536C170.888 25.792 170.856 26.048 170.824 26.304C170.696 27.616 170.728 28.864 170.92 30.048C171.112 31.2 171.496 32.208 172.072 33.072C172.648 33.936 173.416 34.624 174.376 35.136C175.368 35.616 176.552 35.856 177.928 35.856ZM171.256 24L180.808 23.904C181.544 23.872 182.04 23.68 182.296 23.328C182.584 22.976 182.696 22.528 182.632 21.984C182.6 21.568 182.52 21.056 182.392 20.448C182.296 19.808 182.104 19.2 181.816 18.624C181.528 18.016 181.128 17.52 180.616 17.136C180.104 16.72 179.432 16.512 178.6 16.512C176.968 16.544 175.479 17.248 174.135 18.624C172.791 20 171.832 21.792 171.256 24Z" fill="black"/>
<path d="M4.712 5.52003C4.712 4.59203 4.6 3.87203 4.376 3.36003C4.152 2.81603 3.864 2.41603 3.512 2.16003C3.16 1.87203 2.776 1.69603 2.36 1.63203C1.976 1.53603 1.608 1.48803 1.256 1.48803V1.05603H15.08C16.456 1.05603 17.768 1.16803 19.016 1.39203C20.264 1.61603 21.352 2.06403 22.28 2.73603C23.24 3.37603 23.992 4.30403 24.536 5.52003C25.112 6.73603 25.4 8.35203 25.4 10.368C25.4 14.304 24.312 17.2 22.136 19.056C19.96 20.912 16.888 21.808 12.92 21.744L8.648 21.696V31.488C8.648 32.416 8.76 33.152 8.984 33.696C9.208 34.24 9.496 34.656 9.848 34.944C10.2 35.2 10.584 35.36 11 35.424C11.416 35.488 11.8 35.52 12.152 35.52V36H1.16V35.52C1.512 35.52 1.896 35.488 2.312 35.424C2.728 35.36 3.112 35.2 3.464 34.944C3.816 34.656 4.104 34.24 4.328 33.696C4.584 33.152 4.712 32.416 4.712 31.488V5.52003ZM8.648 19.056L13.4 20.976C14.04 21.136 14.584 21.216 15.032 21.216C16.728 21.216 18.168 20.368 19.352 18.672C20.536 16.944 21.128 14.192 21.128 10.416C21.128 8.24003 20.92 6.57603 20.504 5.42403C20.12 4.24003 19.576 3.39203 18.872 2.88003C18.168 2.33603 17.336 2.01603 16.376 1.92003C15.448 1.82403 14.456 1.77603 13.4 1.77603H11.816C11.464 1.77603 11.096 1.80803 10.712 1.87203C10.36 1.90403 10.024 2.04803 9.704 2.30403C9.384 2.52803 9.128 2.89603 8.936 3.40803C8.744 3.92003 8.648 4.64003 8.648 5.56803V19.056Z" stroke="black" stroke-width="1.2" mask="url(#path-1-outside-1_164_1120)"/>
<path d="M34.1 36.768C32.916 36.768 31.812 36.608 30.788 36.288C29.796 35.968 28.948 35.52 28.244 34.944C27.54 34.368 26.996 33.68 26.612 32.88C26.26 32.08 26.1 31.216 26.132 30.288C26.196 29.04 26.596 28 27.332 27.168C28.068 26.304 28.948 25.6 29.972 25.056C30.996 24.512 32.084 24.112 33.236 23.856C34.42 23.568 35.492 23.392 36.452 23.328C38.18 23.2 39.396 22.784 40.1 22.08C40.836 21.376 41.236 20.464 41.3 19.344C41.396 18 41.124 17.04 40.484 16.464C39.844 15.856 39.012 15.552 37.988 15.552C36.452 15.552 34.804 16.064 33.044 17.088C32.82 17.216 32.516 17.552 32.132 18.096C31.748 18.64 31.348 19.216 30.932 19.824C30.516 20.4 30.116 20.928 29.732 21.408C29.348 21.856 29.012 22.08 28.724 22.08L28.964 17.952C29.316 17.792 29.908 17.488 30.74 17.04C31.572 16.56 32.372 16.208 33.14 15.984C33.972 15.728 34.98 15.488 36.164 15.264C37.348 15.008 38.516 14.88 39.668 14.88C40.34 14.88 40.98 14.944 41.588 15.072C42.196 15.2 42.724 15.424 43.172 15.744C43.62 16.032 43.972 16.448 44.228 16.992C44.484 17.504 44.58 18.144 44.516 18.912C44.484 19.68 44.228 20.352 43.748 20.928C43.3 21.472 42.708 21.952 41.972 22.368C41.268 22.752 40.452 23.072 39.524 23.328C38.596 23.584 37.62 23.808 36.596 24C35.892 24.128 35.156 24.336 34.388 24.624C33.652 24.912 32.964 25.296 32.324 25.776C31.716 26.256 31.188 26.848 30.74 27.552C30.292 28.224 30.02 29.04 29.924 30C29.86 30.8 29.924 31.568 30.116 32.304C30.308 33.008 30.596 33.648 30.98 34.224C31.364 34.768 31.828 35.2 32.372 35.52C32.948 35.84 33.54 36 34.148 36C35.204 36 36.116 35.808 36.884 35.424C37.684 35.008 38.34 34.512 38.852 33.936C39.396 33.328 39.812 32.704 40.1 32.064C40.42 31.392 40.66 30.8 40.82 30.288L40.34 29.28C40.212 28.864 40.196 28.576 40.292 28.416C40.42 28.224 40.596 28.048 40.82 27.888C41.076 27.696 41.364 27.456 41.684 27.168C42.036 26.848 42.404 26.352 42.788 25.68L45.188 31.344C45.924 33.104 46.66 34.256 47.396 34.8C48.132 35.312 49.296 31.5 50 31.5V33.75L49.5 35.5L45.5 36C45.052 36 44.5 35.824 43.892 35.472C43.316 35.088 42.9 34.656 42.644 34.176L41.156 30.96C40.932 31.568 40.628 32.208 40.244 32.88C39.892 33.552 39.428 34.176 38.852 34.752C38.308 35.328 37.636 35.808 36.836 36.192C36.068 36.576 35.156 36.768 34.1 36.768Z" stroke="black" stroke-width="1.2" mask="url(#path-1-outside-1_164_1120)"/>
<path d="M50.5996 31.488C51.0156 31.488 51.3676 31.728 51.6556 32.208C51.9436 32.656 52.3116 33.168 52.7596 33.744C53.2396 34.32 53.8636 34.848 54.6316 35.328C55.3996 35.776 56.4556 36 57.7996 36C59.3676 36 60.6476 35.664 61.6396 34.992C62.6636 34.288 63.1756 33.392 63.1756 32.304C63.1756 31.408 62.8556 30.656 62.2156 30.048C61.5756 29.44 60.7596 28.896 59.7676 28.416C58.8076 27.936 57.7676 27.472 56.6476 27.024C55.5276 26.544 54.4716 26.016 53.4796 25.44C52.5196 24.864 51.7196 24.192 51.0796 23.424C50.4396 22.656 50.1196 21.712 50.1196 20.592C50.1196 19.664 50.3436 18.896 50.7916 18.288C51.2396 17.648 51.8156 17.136 52.5196 16.752C53.2236 16.368 54.0236 16.096 54.9196 15.936C55.8156 15.744 56.7116 15.648 57.6076 15.648C58.1196 15.648 58.6956 15.68 59.3356 15.744C60.0076 15.776 60.6476 15.824 61.2556 15.888C61.8956 15.952 62.4716 16.032 62.9836 16.128C63.5276 16.224 63.9276 16.304 64.1836 16.368L64.0396 20.496C63.5916 20.496 63.1916 20.272 62.8396 19.824C62.5196 19.344 62.1356 18.832 61.6876 18.288C61.2716 17.744 60.7596 17.248 60.1516 16.8C59.5436 16.32 58.7436 16.08 57.7516 16.08C57.4636 16.08 57.0956 16.112 56.6476 16.176C56.1996 16.24 55.7676 16.384 55.3516 16.608C54.9356 16.8 54.5676 17.088 54.2476 17.472C53.9596 17.856 53.8156 18.352 53.8156 18.96C53.8156 19.856 54.1356 20.608 54.7756 21.216C55.4156 21.824 56.2156 22.368 57.1756 22.848C58.1356 23.296 59.1756 23.744 60.2956 24.192C61.4476 24.608 62.5036 25.088 63.4636 25.632C64.4236 26.144 65.2236 26.768 65.8636 27.504C66.5036 28.208 66.8236 29.104 66.8236 30.192C66.8236 31.056 66.5836 31.888 66.1036 32.688C65.6556 33.488 64.9996 34.192 64.1356 34.8C63.3036 35.376 62.2796 35.84 61.0636 36.192C59.8796 36.544 58.5676 36.72 57.1276 36.72C55.5916 36.72 54.2476 36.576 53.0956 36.288C51.9756 36 51.0956 35.776 50.4556 35.616L50.5996 31.488Z" stroke="black" stroke-width="1.2" mask="url(#path-1-outside-1_164_1120)"/>
<path d="M68.7166 26.16C68.8446 24.752 69.2126 23.424 69.8206 22.176C70.4606 20.928 71.2926 19.84 72.3166 18.912C73.3406 17.952 74.5246 17.2 75.8686 16.656C77.2126 16.112 78.6686 15.84 80.2366 15.84C81.2926 15.84 82.2206 15.968 83.0206 16.224C83.8206 16.448 84.4926 16.72 85.0366 17.04C85.6126 17.328 86.0606 17.632 86.3806 17.952C86.7006 18.24 86.9086 18.448 87.0046 18.576L86.2366 22.752C85.7886 22.752 85.4846 22.432 85.3246 21.792C85.1646 21.12 84.9246 20.4 84.6046 19.632C84.3166 18.832 83.8366 18.112 83.1646 17.472C82.5246 16.8 81.5006 16.464 80.0926 16.464C79.1326 16.464 78.2526 16.72 77.4526 17.232C76.6526 17.744 75.9326 18.432 75.2926 19.296C74.6846 20.128 74.1726 21.12 73.7566 22.272C73.3726 23.392 73.1326 24.576 73.0366 25.824C72.9086 27.36 73.0206 28.736 73.3726 29.952C73.7246 31.136 74.2686 32.144 75.0046 32.976C75.7726 33.776 76.7006 34.4 77.7886 34.848C78.9086 35.264 80.1246 35.456 81.4366 35.424C82.5566 35.392 83.5326 35.2 84.3646 34.848C85.2286 34.496 85.9486 34.08 86.5246 33.6C87.1006 33.088 87.9806 32.3013 88.3006 31.7893C88.6206 31.2453 90.8247 28.1319 90.9527 27.7799L89.5 30.5C90 30.5 88.7166 31.68 88.3006 32.352C87.8846 33.024 87.2926 33.696 86.5246 34.368C85.7886 35.008 84.8446 35.552 83.6926 36C82.5406 36.48 81.1646 36.736 79.5646 36.768C77.8046 36.8 76.2206 36.56 74.8126 36.048C73.4046 35.536 72.2206 34.816 71.2606 33.888C70.3006 32.928 69.5966 31.792 69.1486 30.48C68.7326 29.168 68.5886 27.728 68.7166 26.16Z" stroke="black" stroke-width="1.2" mask="url(#path-1-outside-1_164_1120)"/>
<path d="M98.1781 36.768C96.9941 36.768 95.8901 36.608 94.8661 36.288C93.8741 35.968 93.0261 35.52 92.3221 34.944C91.6181 34.368 91.0741 33.68 90.6901 32.88C90.3381 32.08 90.1781 31.216 90.2101 30.288C90.2741 29.04 90.6741 28 91.4101 27.168C92.1461 26.304 93.0261 25.6 94.0501 25.056C95.0741 24.512 96.1621 24.112 97.3141 23.856C98.4981 23.568 99.5701 23.392 100.53 23.328C102.258 23.2 103.474 22.784 104.178 22.08C104.914 21.376 105.314 20.464 105.378 19.344C105.474 18 105.202 17.04 104.562 16.464C103.922 15.856 103.09 15.552 102.066 15.552C100.53 15.552 98.8821 16.064 97.1221 17.088C96.8981 17.216 96.5941 17.552 96.2101 18.096C95.8261 18.64 95.4261 19.216 95.0101 19.824C94.5941 20.4 94.1941 20.928 93.8101 21.408C93.4261 21.856 93.0901 22.08 92.8021 22.08L93.0421 17.952C93.3941 17.792 93.9861 17.488 94.8181 17.04C95.6501 16.56 96.4501 16.208 97.2181 15.984C98.0501 15.728 99.0581 15.488 100.242 15.264C101.426 15.008 102.594 14.88 103.746 14.88C104.418 14.88 105.058 14.944 105.666 15.072C106.274 15.2 106.802 15.424 107.25 15.744C107.698 16.032 108.05 16.448 108.306 16.992C108.562 17.504 108.658 18.144 108.594 18.912C108.562 19.68 108.306 20.352 107.826 20.928C107.378 21.472 106.786 21.952 106.05 22.368C105.346 22.752 104.53 23.072 103.602 23.328C102.674 23.584 101.698 23.808 100.674 24C99.9701 24.128 99.2341 24.336 98.4661 24.624C97.7301 24.912 97.0421 25.296 96.4021 25.776C95.7941 26.256 95.2661 26.848 94.8181 27.552C94.3701 28.224 94.0981 29.04 94.0021 30C93.9381 30.8 94.0021 31.568 94.1941 32.304C94.3861 33.008 94.6741 33.648 95.0581 34.224C95.4421 34.768 95.9061 35.2 96.4501 35.52C97.0261 35.84 97.6181 36 98.2261 36C99.2821 36 100.194 35.808 100.962 35.424C101.762 35.008 102.418 34.512 102.93 33.936C103.474 33.328 103.89 32.704 104.178 32.064C104.498 31.392 104.738 30.8 104.898 30.288L104.418 29.28C104.29 28.864 104.274 28.576 104.37 28.416C104.498 28.224 104.674 28.048 104.898 27.888C105.154 27.696 105.442 27.456 105.762 27.168C106.114 26.848 106.482 26.352 106.866 25.68L109.266 31.344C110.002 33.104 110.738 34.256 111.474 34.8C112.21 35.312 112.93 35.568 113.634 35.568L113.73 36H109.554C109.106 36 108.578 35.824 107.97 35.472C107.394 35.088 106.978 34.656 106.722 34.176L105.234 30.96C105.01 31.568 104.706 32.208 104.322 32.88C103.97 33.552 103.506 34.176 102.93 34.752C102.386 35.328 101.714 35.808 100.914 36.192C100.146 36.576 99.2341 36.768 98.1781 36.768Z" stroke="black" stroke-width="1.2" mask="url(#path-1-outside-1_164_1120)"/>
<path d="M120.086 31.536C120.086 32.464 120.198 33.2 120.422 33.744C120.646 34.256 120.934 34.656 121.286 34.944C121.638 35.2 122.022 35.376 122.438 35.472C122.854 35.536 123.238 35.568 123.59 35.568V36H112.694V35.568C113.046 35.568 113.43 35.536 113.846 35.472C114.262 35.376 114.646 35.2 114.998 34.944C115.35 34.656 115.638 34.24 115.862 33.696C116.086 33.152 116.198 32.416 116.198 31.488V7.29603C116.198 6.40003 116.086 5.69603 115.862 5.18403C115.67 4.64003 115.398 4.22403 115.046 3.93603C114.694 3.64803 114.262 3.47203 113.75 3.40803C113.238 3.31203 112.694 3.26403 112.118 3.26403C111.734 3.26403 111.366 3.48803 111.014 3.93603C110.662 4.38403 110.31 4.88003 109.958 5.42403C109.606 5.96803 109.27 6.46403 108.95 6.91203C108.598 7.36003 107.878 4.95423 107.702 4.33488V4.27203C108.31 3.92003 109.094 3.60003 110.054 3.31203C111.014 2.99203 111.91 2.83203 112.742 2.83203C113.51 2.83203 114.31 2.91203 115.142 3.07203C116.006 3.23203 116.806 3.52003 117.542 3.93603C118.278 4.35203 118.886 4.92803 119.366 5.66403C119.846 6.40003 120.086 7.32803 120.086 8.44803V31.536Z" stroke="black" stroke-width="1.2" mask="url(#path-1-outside-1_164_1120)"/>
<path d="M127.552 10.128C128.48 9.77603 129.104 9.37603 129.424 8.92803C129.776 8.48003 130.128 7.88803 130.48 7.15203C130.864 7.88803 131.248 8.46403 131.632 8.88003C132.048 9.26403 132.624 9.66403 133.36 10.08C132.656 10.528 132.112 10.96 131.728 11.376C131.344 11.76 130.928 12.304 130.48 13.008C130.064 12.24 129.648 11.664 129.232 11.28C128.848 10.864 128.288 10.48 127.552 10.128ZM125.776 35.568C126.128 35.568 126.512 35.536 126.928 35.472C127.344 35.376 127.728 35.2 128.08 34.944C128.432 34.656 128.72 34.24 128.944 33.696C129.168 33.152 129.28 32.416 129.28 31.488V20.496C129.28 19.568 129.152 18.832 128.896 18.288C128.672 17.744 128.384 17.344 128.032 17.088C127.68 16.8 127.296 16.624 126.88 16.56C126.496 16.464 126.128 16.416 125.776 16.416V15.984H130.672C131.216 15.984 131.76 16.368 132.304 17.136C132.88 17.904 133.168 19.152 133.168 20.88V31.488C133.168 32.416 133.28 33.152 133.504 33.696C133.728 34.24 134.016 34.656 134.368 34.944C134.72 35.2 135.104 35.376 135.52 35.472C135.936 35.536 136.32 35.568 136.672 35.568V36H125.776V35.568Z" stroke="black" stroke-width="1.2" mask="url(#path-1-outside-1_164_1120)"/>
<path d="M138.901 16.464V15.984H143.797C144.245 15.984 144.709 16.272 145.189 16.848C145.701 17.424 146.037 18.352 146.197 19.632C146.933 18.384 147.829 17.408 148.885 16.704C149.973 16 151.253 15.648 152.725 15.648C154.037 15.648 155.157 15.808 156.085 16.128C157.013 16.448 157.765 16.928 158.341 17.568C158.949 18.176 159.413 18.96 159.733 19.92C160.085 20.848 160.341 21.92 160.501 23.136L161.605 31.536C161.733 32.464 161.909 33.2 162.133 33.744C162.389 34.256 162.677 34.656 162.997 34.944C163.317 35.2 163.653 35.376 164.005 35.472C164.389 35.536 164.757 35.568 165.109 35.568V36H154.213V35.568C154.565 35.568 154.965 35.536 155.413 35.472C155.893 35.376 156.309 35.2 156.661 34.944C157.045 34.656 157.349 34.24 157.573 33.696C157.797 33.152 157.845 32.432 157.717 31.536L156.613 23.136C156.485 22.048 156.325 21.104 156.133 20.304C155.973 19.504 155.717 18.848 155.365 18.336C155.045 17.792 154.613 17.392 154.069 17.136C153.525 16.88 152.789 16.752 151.861 16.752C150.485 16.752 149.317 17.152 148.357 17.952C147.429 18.72 146.741 19.888 146.293 21.456V31.536C146.293 32.464 146.405 33.2 146.629 33.744C146.853 34.256 147.141 34.656 147.493 34.944C147.845 35.2 148.229 35.376 148.645 35.472C149.061 35.536 149.445 35.568 149.797 35.568V36H138.901V35.568C139.253 35.568 139.637 35.536 140.053 35.472C140.469 35.376 140.853 35.2 141.205 34.944C141.557 34.656 141.845 34.256 142.069 33.744C142.293 33.2 142.405 32.464 142.405 31.536V20.496C142.405 19.568 142.277 18.832 142.021 18.288C141.797 17.744 141.509 17.344 141.157 17.088C140.805 16.8 140.421 16.624 140.005 16.56C139.621 16.496 139.253 16.464 138.901 16.464Z" stroke="black" stroke-width="1.2" mask="url(#path-1-outside-1_164_1120)"/>
<path d="M177.928 35.856C178.568 35.856 179.367 35.776 180.327 35.616C181.319 35.456 182.328 35.152 183.352 34.704C184.408 34.224 185.432 33.552 186.424 32.688C187.416 31.824 188.263 30.704 188.967 29.328H189.495C188.503 31.088 187.4 32.496 186.184 33.552C185 34.576 183.816 35.344 182.632 35.856C181.448 36.368 180.327 36.688 179.271 36.816C178.215 36.976 177.352 37.056 176.68 37.056C174.76 37.056 173.128 36.768 171.784 36.192C170.472 35.616 169.416 34.832 168.616 33.84C167.848 32.848 167.304 31.712 166.984 30.432C166.696 29.152 166.632 27.824 166.792 26.448C166.984 24.752 167.431 23.264 168.135 21.984C168.871 20.672 169.784 19.568 170.872 18.672C171.96 17.776 173.176 17.088 174.52 16.608C175.896 16.128 177.303 15.872 178.743 15.84C180.247 15.808 181.479 16.032 182.439 16.512C183.431 16.992 184.184 17.6 184.696 18.336C185.24 19.072 185.56 19.888 185.656 20.784C185.784 21.68 185.752 22.528 185.56 23.328C185.432 23.744 185.207 24.048 184.887 24.24C184.567 24.432 184.232 24.528 183.88 24.528L171.064 24.768C171 25.024 170.952 25.28 170.92 25.536C170.888 25.792 170.856 26.048 170.824 26.304C170.696 27.616 170.728 28.864 170.92 30.048C171.112 31.2 171.496 32.208 172.072 33.072C172.648 33.936 173.416 34.624 174.376 35.136C175.368 35.616 176.552 35.856 177.928 35.856ZM171.256 24L180.808 23.904C181.544 23.872 182.04 23.68 182.296 23.328C182.584 22.976 182.696 22.528 182.632 21.984C182.6 21.568 182.52 21.056 182.392 20.448C182.296 19.808 182.104 19.2 181.816 18.624C181.528 18.016 181.128 17.52 180.616 17.136C180.104 16.72 179.432 16.512 178.6 16.512C176.968 16.544 175.479 17.248 174.135 18.624C172.791 20 171.832 21.792 171.256 24Z" stroke="black" stroke-width="1.2" mask="url(#path-1-outside-1_164_1120)"/>
</svg>
