<svg width="53" height="54" viewBox="0 0 53 54" fill="none" xmlns="http://www.w3.org/2000/svg">
<path d="M26.2404 19.6998C33.3919 19.6998 39.8152 20.6461 44.4079 22.1426C46.7112 22.8931 48.4845 23.7597 49.6559 24.6621C50.8447 25.578 51.2309 26.3791 51.2309 27C51.2309 27.621 50.8447 28.4221 49.6559 29.338C48.4845 30.2403 46.7112 31.107 44.4079 31.8575C39.8152 33.354 33.3919 34.3003 26.2404 34.3003C19.089 34.3003 12.6656 33.354 8.07291 31.8575C5.76968 31.107 3.99631 30.2403 2.82496 29.338C1.63616 28.4221 1.25 27.621 1.25 27C1.25 26.3791 1.63616 25.578 2.82496 24.6621C3.99631 23.7597 5.76968 22.8931 8.07291 22.1426C12.6656 20.6461 19.089 19.6998 26.2404 19.6998Z" stroke="white" stroke-width="2.5"/>
<path d="M32.5627 23.3499C36.1385 29.5433 38.5306 35.5792 39.531 40.3049C40.0326 42.6747 40.1688 44.6439 39.973 46.1095C39.7742 47.5969 39.2735 48.3319 38.7357 48.6424C38.198 48.9529 37.3111 49.019 35.9236 48.4474C34.5564 47.8842 32.9192 46.7817 31.1176 45.1623C27.5253 41.9331 23.4941 36.8435 19.9183 30.6502C16.3426 24.4568 13.9504 18.4209 12.9501 13.6952C12.4484 11.3253 12.3123 9.35622 12.5081 7.89061C12.7068 6.40317 13.2075 5.66819 13.7453 5.3577C14.2831 5.04721 15.17 4.98108 16.5575 5.55269C17.9246 6.11592 19.5619 7.21838 21.3634 8.83779C24.9558 12.0669 28.987 17.1566 32.5627 23.3499Z" stroke="white" stroke-width="2.5"/>
<path d="M32.5625 30.6501C28.9868 36.8435 24.9556 41.9331 21.3632 45.1623C19.5617 46.7817 17.9245 47.8841 16.5573 48.4474C15.1698 49.019 14.2829 48.9528 13.7451 48.6423C13.2073 48.3319 12.7066 47.5969 12.5079 46.1094C12.3121 44.6438 12.4482 42.6747 12.9499 40.3048C13.9503 35.5792 16.3424 29.5432 19.9181 23.3499C23.4939 17.1565 27.5251 12.0669 31.1174 8.83775C32.919 7.21834 34.5562 6.11588 35.9234 5.55265C37.3109 4.98104 38.1978 5.04717 38.7355 5.35766C39.2733 5.66815 39.774 6.40313 39.9728 7.89057C40.1686 9.35618 40.0324 11.3253 39.5308 13.6952C38.5304 18.4208 36.1383 24.4568 32.5625 30.6501Z" stroke="white" stroke-width="2.5"/>
<circle cx="26.2404" cy="26.9999" r="2.06385" fill="white"/>
</svg>
